<svg width="48" height="48" viewBox="0 0 48 48" fill="none" xmlns="http://www.w3.org/2000/svg">
<path d="M42.782 31.3492C42.7358 31.2721 42.686 31.1966 42.638 31.1315C42.3996 30.7983 42.0979 30.5153 41.7501 30.2988C41.4023 30.0822 41.0152 29.9364 40.611 29.8695C40.2067 29.8026 39.7933 29.8161 39.3943 29.9091C38.9952 30.0021 38.6185 30.1728 38.2855 30.4115L29.342 36.7972H19.9991C19.8909 36.8022 19.7829 36.7853 19.6815 36.7473C19.5801 36.7094 19.4875 36.6513 19.4092 36.5765C19.3309 36.5018 19.2686 36.4119 19.226 36.3124C19.1834 36.2129 19.1615 36.1058 19.1615 35.9975C19.1615 35.8892 19.1834 35.7821 19.226 35.6826C19.2686 35.5831 19.3309 35.4932 19.4092 35.4185C19.4875 35.3437 19.5801 35.2856 19.6815 35.2477C19.7829 35.2098 19.8909 35.1928 19.9991 35.1978H25.1985C25.9407 35.1973 26.6524 34.9025 27.1775 34.3781C27.7027 33.8536 27.9983 33.1422 27.9997 32.4C27.9997 32.3915 27.9997 32.3178 27.9997 32.3092C27.9737 31.5721 27.659 30.8748 27.1234 30.3677C26.5878 29.8606 25.8742 29.5845 25.1368 29.5989H14.7293C13.8046 29.6082 12.9114 29.9364 12.2007 30.5281L8.28873 33.7852C8.19862 33.8605 8.12613 33.9546 8.07637 34.0609C8.02661 34.1673 8.00078 34.2832 8.00073 34.4007V44.0007C8.00051 44.1059 8.02106 44.2101 8.06121 44.3073C8.10136 44.4046 8.16033 44.4929 8.23472 44.5673C8.3091 44.6417 8.39744 44.7006 8.49468 44.7408C8.59191 44.7809 8.69612 44.8015 8.80131 44.8013H28.6494C29.9507 44.7983 31.2106 44.3431 32.2134 43.5138L41.9112 35.5012C42.5485 35.0428 42.9913 34.3625 43.1524 33.5942C43.3136 32.8259 43.1815 32.0251 42.782 31.3492ZM40.9375 34.2309L31.1934 42.2795C30.477 42.8718 29.5772 43.1972 28.6477 43.2001H9.60017V34.7761L13.2242 31.7589C13.6489 31.4045 14.183 31.2077 14.7362 31.2018H25.1608C25.4838 31.1977 25.7953 31.3215 26.0273 31.5464C26.2592 31.7713 26.3927 32.0788 26.3985 32.4018C26.3985 32.72 26.2721 33.0253 26.0471 33.2503C25.822 33.4754 25.5168 33.6018 25.1985 33.6018H20.0008C19.3643 33.6018 18.7538 33.8546 18.3037 34.3047C17.8536 34.7548 17.6008 35.3653 17.6008 36.0018C17.6008 36.6383 17.8536 37.2488 18.3037 37.6989C18.7538 38.149 19.3643 38.4018 20.0008 38.4018H29.6008C29.7679 38.4013 29.9308 38.3492 30.0671 38.2526L39.2197 31.7161C39.3823 31.5994 39.5664 31.516 39.7613 31.4707C39.9562 31.4254 40.1581 31.419 40.3555 31.452C40.5529 31.485 40.7418 31.5566 40.9114 31.6628C41.081 31.7691 41.2279 31.9077 41.3437 32.0709C41.3677 32.1035 41.39 32.1378 41.4106 32.172C41.6061 32.5114 41.6662 32.9122 41.5787 33.294C41.4913 33.6757 41.2629 34.0104 40.9392 34.2309H40.9375Z" fill="black"/>
<path d="M8.77547 32.7993H0V34.3987H7.9749V46.3988H0V47.9982H8.77547C8.9878 47.9982 9.19143 47.9139 9.34156 47.7638C9.4917 47.6136 9.57605 47.41 9.57605 47.1976V33.5982C9.57559 33.3862 9.49105 33.1829 9.34096 33.0332C9.19087 32.8834 8.9875 32.7993 8.77547 32.7993Z" fill="black"/>
<path d="M3.99962 39.9995C3.52494 39.9995 3.06093 40.1403 2.66625 40.404C2.27157 40.6677 1.96395 41.0426 1.7823 41.4811C1.60065 41.9196 1.55312 42.4022 1.64573 42.8677C1.73833 43.3333 1.96691 43.7609 2.30256 44.0966C2.63821 44.4322 3.06585 44.6608 3.5314 44.7534C3.99696 44.846 4.47952 44.7985 4.91806 44.6169C5.35661 44.4352 5.73144 44.1276 5.99516 43.7329C6.25887 43.3382 6.39963 42.8742 6.39963 42.3995C6.39963 41.763 6.14677 41.1526 5.69669 40.7025C5.2466 40.2524 4.63614 39.9995 3.99962 39.9995ZM3.99962 43.2001C3.84128 43.2001 3.6865 43.1532 3.55484 43.0652C3.42319 42.9772 3.32058 42.8522 3.25999 42.7059C3.19939 42.5596 3.18354 42.3986 3.21443 42.2433C3.24532 42.0881 3.32157 41.9454 3.43353 41.8335C3.54549 41.7215 3.68814 41.6452 3.84344 41.6144C3.99873 41.5835 4.1597 41.5993 4.30599 41.6599C4.45228 41.7205 4.57731 41.8231 4.66528 41.9548C4.75325 42.0864 4.8002 42.2412 4.8002 42.3995C4.8002 42.6118 4.71585 42.8155 4.56571 42.9656C4.41558 43.1158 4.21195 43.2001 3.99962 43.2001Z" fill="black"/>
<path d="M47.1979 24.7988H0.800577C0.695381 24.7986 0.591175 24.8192 0.493943 24.8593C0.396711 24.8995 0.308366 24.9585 0.233981 25.0328C0.159596 25.1072 0.100634 25.1956 0.0604817 25.2928C0.0203291 25.39 -0.000224143 25.4942 1.8435e-06 25.5994C0.00136356 27.0844 0.591862 28.5081 1.64188 29.5581C2.6919 30.6082 4.11565 31.1987 5.6006 31.2H42.3979C43.883 31.1987 45.307 30.6082 46.3572 29.5582C47.4075 28.5083 47.9984 27.0845 48.0002 25.5994C48.0005 25.4941 47.9799 25.3897 47.9396 25.2924C47.8993 25.195 47.8402 25.1066 47.7657 25.0322C47.6911 24.9578 47.6025 24.8989 47.5051 24.8588C47.4077 24.8188 47.3033 24.7984 47.1979 24.7988ZM42.3979 29.5989H5.6006C4.67861 29.598 3.78514 29.2791 3.07092 28.6961C2.35669 28.113 1.86543 27.3015 1.68001 26.3983H46.3185C46.1331 27.3012 45.6421 28.1125 44.9283 28.6955C44.2144 29.2785 43.3213 29.5976 42.3996 29.5989H42.3979Z" fill="black"/>
<path d="M24 3.99927C18.4855 4.00562 13.1988 6.19903 9.2995 10.0983C5.4002 13.9976 3.20679 19.2844 3.20044 24.7988V25.5994C3.20044 25.8117 3.28479 26.0153 3.43493 26.1655C3.58506 26.3156 3.78869 26.3999 4.00101 26.3999H43.9989C44.1041 26.4002 44.2083 26.3796 44.3056 26.3395C44.4028 26.2993 44.4911 26.2404 44.5655 26.166C44.6399 26.0916 44.6989 26.0032 44.739 25.906C44.7792 25.8088 44.7997 25.7046 44.7995 25.5994V24.7988C44.7931 19.2844 42.5997 13.9976 38.7004 10.0983C34.8011 6.19903 29.5144 4.00562 24 3.99927ZM4.79988 24.7988C4.79988 19.7066 6.82274 14.823 10.4235 11.2223C14.0242 7.62157 18.9078 5.5987 24 5.5987C29.0921 5.5987 33.9758 7.62157 37.5765 11.2223C41.1772 14.823 43.2001 19.7066 43.2001 24.7988H4.79988Z" fill="black"/>
<path d="M10.8412 13.125C10.2804 13.7547 9.76482 14.4232 9.29834 15.1256L10.6321 16.0102C11.0561 15.3706 11.5247 14.7616 12.0344 14.1879L10.8412 13.125Z" fill="black"/>
<path d="M23.9987 7.20044C19.5217 7.19728 15.213 8.90664 11.9558 11.9782L13.0512 13.1439C16.0129 10.3519 19.9302 8.7983 24.0005 8.80159L23.9987 7.20044Z" fill="black"/>
<path d="M26.4004 0H21.6003V1.59944H26.4004V0Z" fill="black"/>
<path d="M24.7987 0.800049H23.1992V4.7995H24.7987V0.800049Z" fill="black"/>
</svg>
