<svg width="121" height="56" viewBox="0 0 121 56" fill="none" xmlns="http://www.w3.org/2000/svg">
<path d="M118.413 54.301C118.413 55.2401 88.6854 56 52.0133 56C15.3412 56 0.00195312 55.2401 0.00195312 54.301C0.00195312 53.3618 15.3412 52.6019 52.0133 52.6019C88.6854 52.6019 118.413 53.3618 118.413 54.301Z" fill="#E17A00"/>
<path d="M22.2067 35.9846C24.7399 35.9846 27.1693 36.9909 28.9605 38.7821C30.7517 40.5733 31.758 43.0027 31.758 45.5359C31.758 48.069 30.7517 50.4985 28.9605 52.2897C27.1693 54.0809 24.7399 55.0872 22.2067 55.0872H19.5586V35.9846H22.2067Z" fill="#0F222C"/>
<path d="M72.07 35.9846C73.3242 35.9846 74.5662 36.2317 75.725 36.7117C76.8839 37.1917 77.9368 37.8952 78.8237 38.7821C79.7106 39.669 80.4142 40.722 80.8942 41.8808C81.3742 43.0396 81.6212 44.2816 81.6212 45.5359C81.6212 46.7902 81.3742 48.0322 80.8942 49.191C80.4142 50.3498 79.7106 51.4027 78.8237 52.2897C77.9368 53.1766 76.8839 53.8801 75.725 54.3601C74.5662 54.8401 73.3242 55.0872 72.07 55.0872H69.4219V35.9846H72.07Z" fill="#212121"/>
<path d="M22.2067 35.9846C24.7399 35.9846 27.1693 36.9909 28.9605 38.7821C30.7517 40.5733 31.758 43.0027 31.758 45.5359C31.758 48.069 30.7517 50.4985 28.9605 52.2897C27.1693 54.0809 24.7399 55.0872 22.2067 55.0872H19.5586V35.9846H22.2067Z" fill="#212121"/>
<path d="M30.7285 43.748C30.7285 41.859 31.2887 40.0123 32.3382 38.4416C33.3877 36.8709 34.8794 35.6467 36.6247 34.9238C38.3699 34.2009 40.2904 34.0118 42.1431 34.3803C43.9959 34.7488 45.6978 35.6585 47.0335 36.9943C48.3693 38.33 49.279 40.0319 49.6475 41.8847C50.0161 43.7375 49.8269 45.6579 49.104 47.4032C48.3811 49.1484 47.1569 50.6401 45.5862 51.6896C44.0155 52.7392 42.1688 53.2993 40.2798 53.2993C39.0255 53.2993 37.7835 53.0523 36.6247 52.5723C35.4659 52.0923 34.4129 51.3887 33.526 50.5018C32.6391 49.6149 31.9356 48.562 31.4556 47.4032C30.9756 46.2443 30.7285 45.0023 30.7285 43.748Z" fill="black"/>
<path d="M93.9205 34.2083C96.4537 34.2083 98.8831 35.2146 100.674 37.0058C102.466 38.797 103.472 41.2264 103.472 43.7595C103.472 46.2927 102.466 48.7221 100.674 50.5133C98.8831 52.3045 96.4537 53.3108 93.9205 53.3108H91.2725V34.2083H93.9205Z" fill="#212121"/>
<path d="M81.7207 43.748C81.7207 41.859 82.2809 40.0123 83.3304 38.4416C84.3799 36.8709 85.8716 35.6467 87.6169 34.9238C89.3622 34.2009 91.2826 34.0118 93.1354 34.3803C94.9881 34.7488 96.69 35.6585 98.0257 36.9943C99.3615 38.33 100.271 40.0319 100.64 41.8847C101.008 43.7375 100.819 45.6579 100.096 47.4032C99.3733 49.1484 98.1491 50.6401 96.5784 51.6896C95.0077 52.7392 93.161 53.2993 91.272 53.2993C90.0177 53.2993 88.7757 53.0523 87.6169 52.5723C86.4581 52.0923 85.4051 51.3887 84.5182 50.5018C83.6313 49.6149 82.9278 48.562 82.4478 47.4032C81.9678 46.2443 81.7207 45.0023 81.7207 43.748Z" fill="black"/>
<path d="M49.8319 39.1887L89.0205 39.1887V2.28882e-05L49.8319 2.28882e-05L49.8319 39.1887Z" fill="#E8BF7C"/>
<path d="M89.0208 39.1887L118.413 39.1887V2.28882e-05L89.0208 2.28882e-05V39.1887Z" fill="#D0A56B"/>
<path d="M66.0817 15.285C66.1893 15.4558 66.3063 15.6205 66.432 15.7784C65.804 15.5241 65.2936 15.0442 65.0011 14.433C64.7822 13.9617 64.6661 13.4493 64.6606 12.9297C64.6531 12.6148 64.6785 12.3001 64.7363 11.9905C64.6267 12.155 64.5241 12.3194 64.4287 12.4839C65.0551 11.3129 66.0167 10.3554 67.1903 9.73383C66.2301 10.6005 65.6175 11.7865 65.4665 13.0711C65.4354 13.8552 65.6506 14.6293 66.0817 15.285Z" fill="url(#paint0_radial)"/>
<path d="M74.185 12.9395C74.1179 13.7693 73.7521 14.5465 73.1554 15.1271C72.932 15.3594 72.6812 15.5638 72.4086 15.7357C72.9569 14.8845 73.1822 13.8651 73.0436 12.8622C72.931 12.3129 72.66 11.8086 72.264 11.4115C72.0964 11.2397 71.9136 11.0833 71.7178 10.9444L71.6718 10.9115L71.6931 10.9773C72.1487 12.3523 71.8017 13.132 71.2376 13.4001C71.1544 13.4396 71.0665 13.4683 70.9761 13.4856C70.841 13.5079 70.7032 13.5079 70.5682 13.4856C69.6783 13.3573 69.5122 11.6105 70.9448 10.1746C71.2354 9.8849 71.5062 9.57607 71.7557 9.25026L71.8363 9.14334C71.9624 9.17295 72.0868 9.20589 72.2096 9.24207L72.4186 9.30783C72.6028 9.36869 72.782 9.43942 72.9563 9.51508C73.2749 9.65499 73.5818 9.81997 73.8742 10.0085C73.8266 10.6571 73.8963 11.309 74.0798 11.9329C74.1681 12.2607 74.2036 12.6005 74.185 12.9395Z" fill="url(#paint1_radial)"/>
<path d="M66.0877 15.285C66.1953 15.4558 66.3123 15.6205 66.438 15.7785C65.891 15.5363 65.4294 15.135 65.1135 14.6269C64.7975 14.1189 64.6418 13.5274 64.6666 12.9296C64.7341 12.7783 64.8064 12.6303 64.8837 12.4856C64.961 12.3408 65.0795 12.1566 65.1913 11.9922C65.0529 12.5722 65.0625 13.1776 65.2191 13.753C65.3757 14.3284 65.6744 14.8551 66.0877 15.285Z" fill="#AC0E22"/>
<path d="M71.3893 10.1812C69.9798 11.5957 70.1179 13.3063 70.9732 13.4839C70.8382 13.5063 70.7003 13.5063 70.5652 13.4839C69.6754 13.3556 69.5093 11.6089 70.9419 10.173C71.2642 9.85177 71.5622 9.50709 71.8334 9.14172C71.9595 9.17133 72.084 9.20422 72.2068 9.24041C71.9559 9.57213 71.6828 9.88644 71.3893 10.1812Z" fill="#AC0E22"/>
<path d="M73.1544 15.1271C72.931 15.3595 72.6803 15.5638 72.4077 15.7357C72.8967 15.1133 73.1502 14.3383 73.1238 13.5472C73.0973 12.7562 72.7925 11.9998 72.2629 11.4116C72.2233 11.2447 72.175 11.0799 72.1182 10.9181C72.8016 11.3495 73.2915 12.0289 73.4847 12.8137C73.6779 13.5986 73.5595 14.4277 73.1544 15.1271Z" fill="#AC0E22"/>
<path d="M76.9455 15.6205C76.9455 15.7499 76.9416 15.8788 76.934 16.0071C76.877 17 76.5981 17.9674 76.1176 18.8382C75.6372 19.7089 74.9675 20.4608 74.1579 21.0384C73.3483 21.616 72.4194 22.0046 71.4397 22.1756C70.46 22.3466 69.4545 22.2956 68.4971 22.0264C67.5397 21.7572 66.6549 21.2767 65.9079 20.6202C65.1609 19.9636 64.5706 19.1479 64.1807 18.233C63.7908 17.3181 63.6111 16.3274 63.6549 15.3339C63.6986 14.3403 63.9647 13.3692 64.4336 12.4922C64.5279 12.3266 64.6304 12.1621 64.7412 11.9987C64.5426 12.7279 64.6029 13.5034 64.9118 14.1932C65.2207 14.8829 65.7591 15.4443 66.4353 15.7817C64.7379 13.6139 65.4485 11.5366 67.1952 9.73716C67.5471 9.37854 67.9206 9.04181 68.3137 8.72889C70.8187 6.71897 71.9996 5.40316 71.1821 2.93927C71.6743 3.27246 72.0877 3.70905 72.3935 4.21859C72.6994 4.72812 72.8904 5.29832 72.953 5.8893C73.0157 6.48027 72.9485 7.0778 72.7563 7.64014C72.5641 8.20248 72.2514 8.71607 71.8401 9.14503C71.569 9.51044 71.2709 9.85515 70.9486 10.1763C69.516 11.6122 69.6822 13.359 70.572 13.4873C71.4618 13.6156 72.3385 12.8294 71.6773 10.9083C72.8138 11.6978 73.827 13.1731 72.4141 15.7324C73.0598 15.3584 73.5696 14.7886 73.8698 14.1055C74.1699 13.4224 74.2448 12.6614 74.0836 11.9329C73.9001 11.309 73.8304 10.6571 73.878 10.0085C74.8214 10.6084 75.5981 11.4369 76.1358 12.4172C76.6735 13.3974 76.9548 14.4976 76.9537 15.6156L76.9455 15.6205Z" fill="url(#paint2_radial)"/>
<path d="M76.5873 13.4659C76.0981 12.0405 75.1403 10.8229 73.8701 10.0118C73.8822 9.52739 74.0366 9.0572 74.3141 8.65998C74.5917 8.26275 74.9802 7.95609 75.431 7.77823C73.9605 9.80954 75.8307 11.0481 76.5873 13.4659Z" fill="#FFB338"/>
<path d="M68.1697 16.5284C68.1639 16.6449 68.1238 16.7569 68.0545 16.8506C67.9851 16.9443 67.8896 17.0153 67.7799 17.0548C67.5648 17.1306 67.3758 17.2663 67.2351 17.4457C67.0944 17.6252 67.0078 17.841 66.9855 18.068C66.9855 18.0778 66.9855 18.0861 66.9855 18.0943C66.9271 18.4266 66.8985 18.7635 66.8999 19.1009C66.9053 19.6285 66.8501 20.155 66.7354 20.67L64.8867 18.6009C65.2082 18.3983 65.5434 18.2186 65.8901 18.0631C66.0391 17.9898 66.1765 17.895 66.2979 17.7818C66.665 17.4563 66.8894 16.9998 66.923 16.5104C66.9215 16.4551 66.9149 16.4 66.9032 16.3459C66.8916 16.2952 66.8866 16.2433 66.8884 16.1913C66.8884 15.7143 67.5217 15.6189 67.6401 16.1913C68.0365 16.1469 68.1796 16.3245 68.1697 16.5284Z" fill="#FFB338"/>
<path d="M68.1697 16.5284C68.1639 16.6449 68.1238 16.7569 68.0545 16.8506C67.9851 16.9443 67.8896 17.0153 67.7799 17.0548C67.5648 17.1306 67.3758 17.2663 67.2351 17.4457C67.0944 17.6252 67.0078 17.841 66.9855 18.068C66.9855 18.0778 66.9855 18.0861 66.9855 18.0943C66.9271 18.4266 66.8985 18.7635 66.8999 19.1009C66.9053 19.6285 66.8501 20.155 66.7354 20.67C65.971 20.1286 65.339 19.4212 64.8867 18.6009C65.2082 18.3983 65.5434 18.2186 65.8901 18.0631C66.0391 17.9898 66.1765 17.895 66.2979 17.7818C66.665 17.4563 66.8894 16.9998 66.923 16.5104C66.9215 16.4551 66.9149 16.4 66.9032 16.3459C66.8916 16.2952 66.8866 16.2433 66.8884 16.1913C66.8884 15.7143 67.5217 15.6189 67.6401 16.1913C68.0365 16.1469 68.1796 16.3245 68.1697 16.5284Z" fill="white" stroke="white" stroke-width="0.5" stroke-miterlimit="10"/>
<path d="M76.4488 15.9955C76.3869 17.0054 76.0773 17.9844 75.5476 18.8464C75.0179 19.7084 74.2843 20.4268 73.4113 20.9383C72.5384 21.4497 71.5531 21.7385 70.5422 21.7792C69.5313 21.82 68.5259 21.6113 67.6146 21.1717L67.4502 21.0845C69.0347 21.0075 70.5566 20.4422 71.8072 19.4661C71.9449 19.4585 72.083 19.4679 72.2184 19.494C72.4033 19.1645 72.6919 18.9052 73.0393 18.7565C73.3867 18.6078 73.7735 18.578 74.1396 18.6716C74.1951 18.7337 74.263 18.7833 74.3389 18.8175C74.4149 18.8518 74.4971 18.8697 74.5804 18.8702C74.6636 18.8707 74.7462 18.8538 74.8225 18.8206C74.8989 18.7874 74.9674 18.7385 75.0238 18.6772C75.0801 18.6159 75.123 18.5435 75.1497 18.4646C75.1764 18.3857 75.1863 18.3022 75.1788 18.2192C75.1713 18.1363 75.1465 18.0558 75.106 17.9831C75.0655 17.9103 75.0103 17.8467 74.9438 17.7966C74.9188 17.3614 75.0606 16.933 75.3401 16.5984C75.6197 16.2639 76.0161 16.0483 76.4488 15.9955Z" fill="white"/>
<path d="M69.6339 21.5302C69.7602 21.5302 69.8625 21.4279 69.8625 21.3016C69.8625 21.1754 69.7602 21.073 69.6339 21.073C69.5076 21.073 69.4053 21.1754 69.4053 21.3016C69.4053 21.4279 69.5076 21.5302 69.6339 21.5302Z" fill="#FFB338"/>
<path d="M75.6094 17.2801C75.6985 17.2801 75.7706 17.2079 75.7706 17.1189C75.7706 17.0299 75.6985 16.9577 75.6094 16.9577C75.5204 16.9577 75.4482 17.0299 75.4482 17.1189C75.4482 17.2079 75.5204 17.2801 75.6094 17.2801Z" fill="#FFB338"/>
<path d="M71.6708 21.2391C71.7344 21.2391 71.7859 21.1876 71.7859 21.124C71.7859 21.0604 71.7344 21.0089 71.6708 21.0089C71.6072 21.0089 71.5557 21.0604 71.5557 21.124C71.5557 21.1876 71.6072 21.2391 71.6708 21.2391Z" fill="#FFB338"/>
<path d="M74.4306 19.0121C74.4942 19.0121 74.5457 18.9605 74.5457 18.8969C74.5457 18.8333 74.4942 18.7818 74.4306 18.7818C74.367 18.7818 74.3154 18.8333 74.3154 18.8969C74.3154 18.9605 74.367 19.0121 74.4306 19.0121Z" fill="#FFB338"/>
<path d="M71.0097 20.3065C71.0733 20.3065 71.1248 20.255 71.1248 20.1914C71.1248 20.1278 71.0733 20.0763 71.0097 20.0763C70.9461 20.0763 70.8945 20.1278 70.8945 20.1914C70.8945 20.255 70.9461 20.3065 71.0097 20.3065Z" fill="#FFB338"/>
<path d="M73.2069 20.6618C73.2705 20.6618 73.3221 20.6102 73.3221 20.5467C73.3221 20.4831 73.2705 20.4315 73.2069 20.4315C73.1433 20.4315 73.0918 20.4831 73.0918 20.5467C73.0918 20.6102 73.1433 20.6618 73.2069 20.6618Z" fill="#FFB338"/>
<path d="M73.3749 19.6009C73.4385 19.6009 73.49 19.5494 73.49 19.4858C73.49 19.4222 73.4385 19.3706 73.3749 19.3706C73.3113 19.3706 73.2598 19.4222 73.2598 19.4858C73.2598 19.5494 73.3113 19.6009 73.3749 19.6009Z" fill="#FFB338"/>
<path d="M68.3306 21.0549C68.3779 21.0549 68.4162 21.0166 68.4162 20.9694C68.4162 20.9221 68.3779 20.8839 68.3306 20.8839C68.2834 20.8839 68.2451 20.9221 68.2451 20.9694C68.2451 21.0166 68.2834 21.0549 68.3306 21.0549Z" fill="#FFB338"/>
<path d="M70.718 15.3146C70.5522 15.4304 70.4229 15.5911 70.3451 15.7779C70.2673 15.9646 70.2444 16.1696 70.2789 16.3689C70.2789 16.3689 70.2789 16.3837 70.2789 16.392C70.3072 16.6896 70.3622 16.9841 70.4434 17.2719L70.4581 17.3278C70.3371 17.4152 70.2418 17.5333 70.1819 17.67C70.1467 17.745 70.1208 17.824 70.1046 17.9052C70.1003 17.9254 70.0943 17.9452 70.0865 17.9644C69.9338 18.2286 69.689 18.4272 69.3989 18.522C69.3452 18.5403 69.2903 18.5546 69.2345 18.5647C69.19 18.573 69.1448 18.578 69.0996 18.5795H69.0042C68.6512 18.5852 68.2992 18.6188 67.9515 18.6799L67.8857 18.693C68.1187 17.8578 68.6277 17.1261 69.3298 16.6173C69.4392 16.522 69.534 16.4112 69.6111 16.2884C69.8478 15.9231 69.9316 15.4795 69.8446 15.0531C69.8298 15.0043 69.8105 14.957 69.7871 14.9117C69.7649 14.8708 69.7483 14.827 69.7377 14.7817C69.6259 14.3738 70.1424 14.1435 70.3825 14.6074C70.7115 14.4807 70.876 14.5975 70.922 14.7719C70.9456 14.8724 70.9388 14.9776 70.9025 15.0742C70.8661 15.1708 70.8019 15.2545 70.718 15.3146Z" fill="white"/>
<path d="M71.5237 18.6042C71.4783 18.6969 71.4064 18.7741 71.3171 18.8259C71.2278 18.8778 71.1251 18.9019 71.0221 18.8953C70.8207 18.8811 70.6195 18.9244 70.4418 19.0202C70.2642 19.116 70.1174 19.2604 70.0187 19.4365C69.7343 19.3105 69.4268 19.2455 69.1158 19.2457H68.9973C68.6768 19.2641 68.3639 19.3513 68.0801 19.5014C67.7962 19.6516 67.5481 19.8611 67.3525 20.1157C67.3821 19.8679 67.4013 19.6015 67.4101 19.3164C67.9622 19.126 68.5432 19.0325 69.1272 19.0401C69.2743 19.033 69.4196 19.0042 69.5582 18.9545C69.9718 18.8196 70.3161 18.5278 70.5171 18.142C70.5363 18.0946 70.5511 18.0457 70.5615 17.9956C70.57 17.9501 70.5844 17.9059 70.6043 17.8641C70.7687 17.4759 71.3214 17.6222 71.2145 18.1338C71.5468 18.2456 71.6027 18.4413 71.5237 18.6042Z" fill="white"/>
<path d="M68.1697 16.5284C68.1639 16.6449 68.1238 16.7569 68.0545 16.8506C67.9851 16.9443 67.8896 17.0153 67.7799 17.0548C67.5648 17.1306 67.3758 17.2663 67.2351 17.4457C67.0944 17.6252 67.0078 17.841 66.9855 18.068C66.9855 18.0778 66.9855 18.0861 66.9855 18.0943C66.9271 18.4266 66.8985 18.7635 66.8999 19.1009C66.9053 19.6285 66.8501 20.155 66.7354 20.67C65.971 20.1286 65.339 19.4212 64.8867 18.6009C65.2082 18.3983 65.5434 18.2186 65.8901 18.0631C66.0391 17.9898 66.1765 17.895 66.2979 17.7818C66.665 17.4563 66.8894 16.9998 66.923 16.5104C66.9215 16.4551 66.9149 16.4 66.9032 16.3459C66.8916 16.2952 66.8866 16.2433 66.8884 16.1913C66.8884 15.7143 67.5217 15.6189 67.6401 16.1913C68.0365 16.1469 68.1796 16.3245 68.1697 16.5284Z" fill="white" stroke="white" stroke-width="0.5" stroke-miterlimit="10"/>
<path d="M55.2035 28.3462H54.5456V29.2311C54.5456 29.3005 54.5181 29.367 54.469 29.416C54.42 29.4651 54.3535 29.4926 54.2841 29.4926H53.5867C53.5174 29.4926 53.4508 29.4651 53.4018 29.416C53.3527 29.367 53.3252 29.3005 53.3252 29.2311V25.4481C53.3252 25.3788 53.3527 25.3123 53.4018 25.2632C53.4508 25.2142 53.5174 25.1866 53.5867 25.1866H55.2956C56.4717 25.1866 57.2102 25.7968 57.2102 26.782C57.2211 27.067 57.1466 27.3488 56.9962 27.5911C56.8459 27.8335 56.6266 28.0255 56.3664 28.1423L57.0161 29.0881C57.0426 29.1273 57.0579 29.173 57.0605 29.2203C57.0631 29.2676 57.0528 29.3147 57.0306 29.3566C57.0085 29.3985 56.9754 29.4335 56.9349 29.4581C56.8944 29.4826 56.848 29.4957 56.8006 29.4959H56.1279C56.0855 29.4959 56.0437 29.4856 56.0062 29.4658C55.9686 29.4461 55.9365 29.4174 55.9124 29.3824L55.2035 28.3462ZM55.215 26.1422H54.5374V27.4054H55.215C55.72 27.4054 55.9733 27.1718 55.9733 26.7771C55.9733 26.3823 55.72 26.1422 55.215 26.1422Z" fill="#1A1818"/>
<path d="M57.5739 25.1635C57.5768 25.0748 57.598 24.9876 57.6361 24.9073C57.6742 24.8271 57.7285 24.7556 57.7954 24.6972C57.8624 24.6389 57.9407 24.595 58.0254 24.5682C58.1101 24.5415 58.1994 24.5325 58.2877 24.5418C58.375 24.5306 58.4636 24.5376 58.548 24.5625C58.6323 24.5874 58.7105 24.6295 58.7777 24.6863C58.8449 24.7431 58.8995 24.8132 58.938 24.8923C58.9766 24.9713 58.9982 25.0576 59.0016 25.1455C58.9818 25.3197 58.8991 25.4808 58.769 25.5984C58.6389 25.7161 58.4703 25.7822 58.2949 25.7844C58.1195 25.7867 57.9494 25.7248 57.8163 25.6105C57.6833 25.4962 57.5965 25.3373 57.5723 25.1635H57.5739ZM57.9637 26.1505H58.6118C58.6812 26.1505 58.7477 26.178 58.7967 26.2271C58.8458 26.2761 58.8733 26.3426 58.8733 26.412V29.2278C58.8733 29.2972 58.8458 29.3637 58.7967 29.4127C58.7477 29.4618 58.6812 29.4893 58.6118 29.4893H57.9637C57.8944 29.4893 57.8279 29.4618 57.7788 29.4127C57.7298 29.3637 57.7022 29.2972 57.7022 29.2278V26.4218C57.7016 26.3871 57.7078 26.3525 57.7207 26.3202C57.7335 26.2879 57.7527 26.2585 57.7771 26.2337C57.8014 26.2089 57.8304 26.1892 57.8625 26.1758C57.8945 26.1623 57.929 26.1554 57.9637 26.1554V26.1505Z" fill="#1A1818"/>
<path d="M59.3037 27.8183C59.3074 27.5767 59.3611 27.3385 59.4612 27.1187C59.5613 26.8988 59.7058 26.702 59.8856 26.5406C60.0653 26.3793 60.2765 26.2568 60.5058 26.1808C60.7352 26.1049 60.9777 26.0772 61.2182 26.0994C61.4919 26.0815 61.7658 26.1323 62.0149 26.2472C62.2639 26.3621 62.4803 26.5375 62.6443 26.7574C62.6655 26.7881 62.68 26.823 62.6867 26.8598C62.6934 26.8965 62.6922 26.9342 62.6831 26.9705C62.6741 27.0068 62.6575 27.0407 62.6343 27.07C62.6112 27.0993 62.5821 27.1234 62.5489 27.1406L62.0801 27.3791C62.0271 27.4053 61.9665 27.4123 61.9089 27.3988C61.8513 27.3853 61.8002 27.3522 61.7643 27.3051C61.7002 27.2194 61.6167 27.1502 61.5206 27.103C61.4246 27.0558 61.3187 27.032 61.2117 27.0336C61.0134 27.0517 60.8292 27.1433 60.695 27.2902C60.5608 27.4372 60.4864 27.6291 60.4864 27.8281C60.4864 28.0272 60.5608 28.219 60.695 28.366C60.8292 28.513 61.0134 28.6045 61.2117 28.6225C61.3187 28.6241 61.4246 28.6004 61.5206 28.5532C61.6167 28.5061 61.7002 28.4368 61.7643 28.3512C61.8002 28.3041 61.8513 28.271 61.9089 28.2575C61.9665 28.244 62.0271 28.2509 62.0801 28.2772L62.5489 28.5156C62.5821 28.5328 62.6112 28.557 62.6343 28.5863C62.6575 28.6156 62.6741 28.6495 62.6831 28.6858C62.6922 28.722 62.6934 28.7597 62.6867 28.7965C62.68 28.8332 62.6655 28.8682 62.6443 28.8989C62.4803 29.1188 62.2639 29.2942 62.0149 29.4091C61.7658 29.524 61.4919 29.5748 61.2182 29.5568C60.9761 29.579 60.732 29.5504 60.5015 29.4732C60.2709 29.396 60.0589 29.2718 59.8789 29.1083C59.6989 28.9448 59.5548 28.7458 59.4558 28.5237C59.3568 28.3017 59.305 28.0614 59.3037 27.8183Z" fill="#1A1818"/>
<path d="M66.4669 28.1193H64.0409C64.0944 28.2902 64.2057 28.4372 64.3557 28.5351C64.5058 28.6329 64.6852 28.6755 64.8633 28.6554C65.0759 28.6627 65.2858 28.6054 65.4652 28.491C65.5161 28.4583 65.5768 28.4442 65.6369 28.4514C65.6969 28.4587 65.7526 28.4866 65.7942 28.5305L66.0656 28.8134C66.0912 28.8395 66.1109 28.8708 66.1235 28.9051C66.1361 28.9394 66.1413 28.976 66.1389 29.0125C66.1364 29.049 66.1263 29.0845 66.1091 29.1168C66.0919 29.1491 66.0681 29.1774 66.0393 29.1999C65.6849 29.4469 65.2586 29.5696 64.8271 29.5486C64.5825 29.5754 64.335 29.5508 64.1004 29.4764C63.8658 29.402 63.6494 29.2794 63.465 29.1165C63.2806 28.9536 63.1322 28.754 63.0294 28.5305C62.9267 28.3069 62.8717 28.0643 62.8682 27.8183C62.8681 27.5825 62.9164 27.3492 63.0102 27.1329C63.1039 26.9166 63.2411 26.7219 63.4132 26.5608C63.5853 26.3997 63.7886 26.2755 64.0106 26.1962C64.2326 26.1168 64.4685 26.0839 64.7037 26.0994C64.9377 26.0834 65.1724 26.1167 65.3927 26.1972C65.6129 26.2777 65.8138 26.4037 65.9822 26.5668C66.1506 26.73 66.2829 26.9267 66.3704 27.1443C66.4578 27.3619 66.4986 27.5954 66.49 27.8297C66.4867 27.9169 66.4735 28.0304 66.4669 28.1193ZM64.0228 27.5041H65.3896C65.3611 27.3435 65.277 27.1982 65.152 27.0935C65.0271 26.9888 64.8692 26.9313 64.7062 26.9313C64.5432 26.9313 64.3853 26.9888 64.2604 27.0935C64.1354 27.1982 64.0513 27.3435 64.0228 27.5041Z" fill="#1A1818"/>
<path d="M74.9624 27.2459H75.5184C75.5877 27.2459 75.6543 27.2735 75.7033 27.3225C75.7523 27.3716 75.7799 27.4381 75.7799 27.5074V29.0322C75.2453 29.3919 74.6149 29.5827 73.9706 29.5799C73.6636 29.5985 73.3561 29.5538 73.0671 29.4488C72.778 29.3437 72.5136 29.1804 72.2903 28.969C72.0669 28.7576 71.8893 28.5026 71.7685 28.2198C71.6477 27.937 71.5862 27.6324 71.5879 27.3248C71.5896 27.0173 71.6544 26.7133 71.7784 26.4319C71.9023 26.1504 72.0826 25.8974 72.3083 25.6885C72.534 25.4795 72.8002 25.3191 73.0904 25.2172C73.3805 25.1154 73.6885 25.0742 73.9953 25.0962C74.611 25.0714 75.2134 25.2792 75.6828 25.6784C75.7097 25.7029 75.7312 25.7328 75.7459 25.7661C75.7606 25.7994 75.7682 25.8353 75.7682 25.8717C75.7682 25.9081 75.7606 25.944 75.7459 25.9773C75.7312 26.0106 75.7097 26.0404 75.6828 26.0649L75.2865 26.4235C75.2405 26.4655 75.1808 26.4895 75.1185 26.491C75.0563 26.4925 74.9956 26.4715 74.9477 26.4318C74.7027 26.2157 74.386 26.0984 74.0594 26.1028C73.8916 26.0923 73.7236 26.1183 73.5668 26.179C73.41 26.2396 73.2683 26.3335 73.1513 26.4541C73.0342 26.5748 72.9447 26.7194 72.8888 26.8779C72.8329 27.0364 72.812 27.2051 72.8275 27.3725C72.829 27.5317 72.862 27.6891 72.9246 27.8354C72.9872 27.9818 73.0782 28.1142 73.1923 28.2252C73.3063 28.3362 73.4412 28.4236 73.5892 28.4822C73.7372 28.5408 73.8953 28.5695 74.0545 28.5666C74.2815 28.5683 74.5062 28.52 74.7125 28.4252V27.5041C74.7132 27.4373 74.7395 27.3733 74.786 27.3252C74.8325 27.2772 74.8956 27.2489 74.9624 27.2459Z" fill="#1A1818"/>
<path d="M78.6167 26.3774V26.8709C78.6165 26.905 78.6096 26.9388 78.5964 26.9702C78.5831 27.0017 78.5637 27.0302 78.5394 27.0541C78.5151 27.0781 78.4864 27.0971 78.4548 27.1099C78.4232 27.1228 78.3893 27.1293 78.3552 27.1291C78.2452 27.1171 78.134 27.1304 78.0299 27.1678C77.9257 27.2052 77.8315 27.2658 77.7543 27.3451C77.6771 27.4243 77.6189 27.5202 77.5842 27.6252C77.5496 27.7303 77.5393 27.8419 77.5542 27.9515V29.4845H76.3848V26.407C76.3848 26.3377 76.4123 26.2711 76.4614 26.2221C76.5104 26.1731 76.5769 26.1455 76.6463 26.1455H77.2384C77.3077 26.1455 77.3743 26.1731 77.4233 26.2221C77.4723 26.2711 77.4999 26.3377 77.4999 26.407V26.5469C77.7073 26.3006 78.0021 26.1443 78.3223 26.111C78.3598 26.1059 78.3979 26.1091 78.434 26.1203C78.4701 26.1315 78.5034 26.1505 78.5314 26.1758C78.5594 26.2012 78.5816 26.2325 78.5964 26.2673C78.6111 26.3021 78.618 26.3396 78.6167 26.3774Z" fill="#1A1818"/>
<path d="M78.8512 25.1635C78.8541 25.0748 78.8752 24.9876 78.9134 24.9073C78.9515 24.8271 79.0057 24.7556 79.0727 24.6972C79.1397 24.6389 79.218 24.595 79.3027 24.5682C79.3874 24.5415 79.4768 24.5325 79.5651 24.5418C79.6523 24.5306 79.7408 24.5376 79.8252 24.5625C79.9096 24.5874 79.9878 24.6295 80.055 24.6863C80.1221 24.7431 80.1768 24.8132 80.2153 24.8923C80.2539 24.9713 80.2755 25.0576 80.2789 25.1455C80.259 25.3197 80.1764 25.4808 80.0463 25.5984C79.9161 25.7161 79.7476 25.7822 79.5722 25.7844C79.3968 25.7867 79.2266 25.7248 79.0936 25.6105C78.9605 25.4962 78.8738 25.3373 78.8496 25.1635H78.8512ZM79.241 26.1505H79.889C79.9584 26.1505 80.0249 26.178 80.074 26.2271C80.123 26.2761 80.1506 26.3426 80.1506 26.412V29.2278C80.1506 29.2972 80.123 29.3637 80.074 29.4127C80.0249 29.4618 79.9584 29.4893 79.889 29.4893H79.241C79.1717 29.4893 79.1052 29.4618 79.0561 29.4127C79.0071 29.3637 78.9795 29.2972 78.9795 29.2278V26.4218C78.9789 26.3871 78.9851 26.3525 78.998 26.3202C79.0108 26.2879 79.03 26.2585 79.0543 26.2337C79.0787 26.2089 79.1078 26.1892 79.1398 26.1758C79.1719 26.1623 79.2063 26.1554 79.241 26.1554V26.1505Z" fill="#1A1818"/>
<path d="M81.0536 24.9234H81.7016C81.771 24.9234 81.8375 24.951 81.8865 25C81.9356 25.0491 81.9631 25.1156 81.9631 25.1849V29.2328C81.9631 29.3021 81.9356 29.3686 81.8865 29.4177C81.8375 29.4667 81.771 29.4943 81.7016 29.4943H81.0536C80.9842 29.4943 80.9176 29.4667 80.8686 29.4177C80.8195 29.3686 80.792 29.3021 80.792 29.2328V25.1849C80.792 25.1156 80.8195 25.0491 80.8686 25C80.9176 24.951 80.9842 24.9234 81.0536 24.9234Z" fill="#1A1818"/>
<path d="M82.8631 24.9234H83.5112C83.5806 24.9234 83.6471 24.951 83.6961 25C83.7452 25.0491 83.7727 25.1156 83.7727 25.1849V29.2328C83.7727 29.3021 83.7452 29.3686 83.6961 29.4177C83.6471 29.4667 83.5806 29.4943 83.5112 29.4943H82.8631C82.7937 29.4943 82.7272 29.4667 82.6782 29.4177C82.6291 29.3686 82.6016 29.3021 82.6016 29.2328V25.1849C82.6016 25.1156 82.6291 25.0491 82.6782 25C82.7272 24.951 82.7937 24.9234 82.8631 24.9234Z" fill="#1A1818"/>
<path d="M84.2481 28.9762L84.3879 28.6555C84.416 28.5924 84.468 28.543 84.5324 28.518C84.5968 28.4931 84.6684 28.4945 84.7316 28.5222C85.0268 28.645 85.343 28.7092 85.6626 28.7114C86.0574 28.7114 86.1857 28.6258 86.1857 28.4844C86.1857 28.0354 84.2119 28.5453 84.2119 27.2097C84.2119 26.5814 84.7909 26.1011 85.8386 26.1011C86.1983 26.098 86.5561 26.1535 86.8978 26.2656C86.9318 26.2775 86.963 26.2964 86.9894 26.3209C87.0158 26.3454 87.0369 26.3751 87.0512 26.4081C87.0656 26.4412 87.073 26.4769 87.0729 26.5129C87.0728 26.549 87.0653 26.5846 87.0508 26.6175L86.9126 26.9301C86.8858 26.9907 86.8368 27.0389 86.7757 27.0646C86.7145 27.0903 86.6458 27.0916 86.5837 27.0683C86.3493 26.975 86.0992 26.9275 85.8469 26.9285C85.4521 26.9285 85.3106 27.0386 85.3106 27.162C85.3106 27.6241 87.2745 27.1258 87.2745 28.4499C87.2745 29.065 86.7071 29.5469 85.6297 29.5469C85.2065 29.5487 84.7867 29.4724 84.3912 29.3216C84.3589 29.3087 84.3294 29.2893 84.3047 29.2648C84.2799 29.2403 84.2603 29.2112 84.247 29.179C84.2336 29.1468 84.2269 29.1123 84.2271 29.0775C84.2273 29.0427 84.2344 29.0082 84.2481 28.9762Z" fill="#1A1818"/>
<path d="M69.8946 25.078V27.6456L68.1972 25.5961C68.133 25.5188 68.0525 25.4566 67.9616 25.4139C67.8706 25.3713 67.7713 25.3493 67.6708 25.3495C67.4898 25.3495 67.3162 25.4213 67.1882 25.5494C67.0601 25.6774 66.9883 25.851 66.9883 26.032V31.8743H67.0113L68.1824 30.7033V27.3643L69.8814 29.4137C69.9456 29.491 70.026 29.5532 70.117 29.5959C70.208 29.6385 70.3073 29.6606 70.4078 29.6604C70.5888 29.6604 70.7624 29.5885 70.8904 29.4605C71.0184 29.3325 71.0904 29.1589 71.0904 28.9779V23.879L69.8946 25.078Z" fill="#E9373A"/>
<path d="M56.4041 30.9683V31.2973H56.9206V31.4617H56.4041V31.8713H56.2051V30.8005H56.9864V30.965L56.4041 30.9683Z" fill="#373A3B"/>
<path d="M59.1098 31.8726L58.8911 31.5585H58.6082V31.871H58.4092V30.8003H58.85C59.1312 30.8003 59.3056 30.9433 59.3056 31.1818C59.3087 31.2549 59.2884 31.3271 59.2476 31.3877C59.2067 31.4484 59.1475 31.4945 59.0786 31.5191L59.3253 31.871L59.1098 31.8726ZM58.8401 30.9696H58.6082V31.3957H58.8401C59.0144 31.3957 59.1049 31.3167 59.1049 31.1818C59.1049 31.047 59.0227 30.9696 58.8401 30.9696Z" fill="#373A3B"/>
<path d="M61.5516 31.7049V31.8693H60.749V30.7986H61.5303V30.9631H60.948V31.2411H61.4645V31.4055H60.948V31.7L61.5516 31.7049Z" fill="#373A3B"/>
<path d="M62.9082 31.7591L62.9773 31.6045C63.0794 31.681 63.2034 31.7225 63.3309 31.723C63.4954 31.723 63.5678 31.6637 63.5678 31.5832C63.5678 31.3529 62.9312 31.5042 62.9312 31.1062C62.9312 30.9335 63.0694 30.7871 63.3622 30.7871C63.4877 30.7852 63.6113 30.8182 63.7191 30.8824L63.6566 31.0371C63.5675 30.984 63.4659 30.955 63.3622 30.9532C63.1977 30.9532 63.1303 31.0174 63.1303 31.098C63.1303 31.3266 63.7652 31.1769 63.7652 31.57C63.7652 31.7345 63.6254 31.8874 63.3326 31.8874C63.1809 31.8925 63.0317 31.8474 62.9082 31.7591Z" fill="#373A3B"/>
<path d="M66.1321 30.8019V31.8726H65.933V31.4187H65.3738V31.8776H65.1748V30.8068H65.3738V31.2493H65.9281V30.8068L66.1321 30.8019Z" fill="#373A3B"/>
<path d="M72.2391 30.9701H71.8838V30.8057H72.7917V30.9701H72.4364V31.8731H72.2375L72.2391 30.9701Z" fill="#373A3B"/>
<path d="M74.8039 31.6243H74.2694L74.1642 31.8727H73.9668L74.4487 30.8019H74.6444L75.128 31.8727H74.9208L74.8039 31.6243ZM74.7382 31.468L74.5359 31.0009L74.3352 31.468H74.7382Z" fill="#373A3B"/>
<path d="M76.3896 31.7592L76.4587 31.6046C76.5608 31.681 76.6848 31.7225 76.8123 31.7229C76.9768 31.7229 77.0491 31.6638 77.0491 31.5832C77.0491 31.3529 76.4126 31.5042 76.4126 31.1061C76.4126 30.9334 76.5507 30.7871 76.8435 30.7871C76.969 30.7851 77.0927 30.8181 77.2005 30.8825L77.138 31.0371C77.0488 30.984 76.9473 30.9551 76.8435 30.9532C76.679 30.9532 76.6116 31.0173 76.6116 31.0979C76.6116 31.3265 77.2466 31.1769 77.2466 31.57C77.2466 31.7345 77.1068 31.8875 76.814 31.8875C76.6623 31.8927 76.5131 31.8476 76.3896 31.7592Z" fill="#373A3B"/>
<path d="M78.8611 30.9697H78.5059V30.8052H79.4138V30.9697H79.0585V31.8727H78.8611V30.9697Z" fill="#373A3B"/>
<path d="M81.2373 31.4943V31.8727H81.0382V31.4976L80.6172 30.8019H80.8294L81.1419 31.3234L81.4594 30.8019H81.655L81.2373 31.4943Z" fill="#373A3B"/>
<path d="M89.0205 45.5359L3.17426 45.5359C2.33235 45.5359 1.52493 45.2014 0.929604 44.6061C0.334282 44.0108 -0.000167847 43.2034 -0.000167847 42.3615C-0.000167847 41.9448 0.0819016 41.5322 0.241348 41.1473C0.400795 40.7623 0.634499 40.4126 0.929123 40.118C1.22374 39.8233 1.57351 39.5896 1.95844 39.4302C2.34338 39.2707 2.75597 39.1887 3.17262 39.1887L89.0205 39.1887V45.5359Z" fill="#161616"/>
<path d="M1.8877 39.1887H49.8332V2.55734e-08H25.8078C23.4982 -0.000138969 21.2238 0.566318 19.1841 1.6497C17.1443 2.73309 15.4015 4.30035 14.1084 6.21402L4.30717 20.7194C2.73025 23.054 1.88765 25.8069 1.8877 28.6242V39.1887Z" fill="#FF403B"/>
<path d="M38.3246 23.1882V4.40967H25.8062C24.2177 4.40962 22.6535 4.79955 21.2508 5.54518C19.8482 6.2908 18.65 7.36933 17.7615 8.68612L7.96191 23.1898L38.3246 23.1882Z" fill="#F2F2F2"/>
<path d="M44.0588 39.1887H49.832L49.832 2.28882e-05H44.0588L44.0588 39.1887Z" fill="#CE3836"/>
<path d="M68.9856 34.2083C71.9916 34.2083 74.8745 35.4024 77.0001 37.528C79.1257 39.6536 80.3198 42.5364 80.3198 45.5424H57.6514C57.6514 42.5364 58.8455 39.6536 60.9711 37.528C63.0967 35.4024 65.9796 34.2083 68.9856 34.2083Z" fill="#212121"/>
<path d="M19.1262 34.2083C20.6146 34.2083 22.0885 34.5014 23.4636 35.071C24.8387 35.6406 26.0882 36.4755 27.1407 37.528C28.1932 38.5805 29.0281 39.8299 29.5976 41.2051C30.1672 42.5802 30.4604 44.054 30.4604 45.5424H7.79199C7.79178 44.054 8.08479 42.58 8.65431 41.2048C9.22384 39.8296 10.0587 38.58 11.1112 37.5275C12.1637 36.475 13.4133 35.6401 14.7885 35.0706C16.1638 34.5011 17.6377 34.208 19.1262 34.2083Z" fill="#212121"/>
<path d="M59.876 45.5359C59.876 43.6468 60.4361 41.8002 61.4856 40.2295C62.5352 38.6588 64.0268 37.4346 65.7721 36.7117C67.5174 35.9888 69.4378 35.7996 71.2906 36.1682C73.1433 36.5367 74.8452 37.4464 76.181 38.7821C77.5168 40.1179 78.4264 41.8198 78.795 43.6726C79.1635 45.5253 78.9744 47.4458 78.2515 49.191C77.5285 50.9363 76.3043 52.428 74.7336 53.4775C73.1629 54.527 71.3163 55.0872 69.4272 55.0872C66.8941 55.0872 64.4647 54.0809 62.6735 52.2897C60.8823 50.4985 59.876 48.069 59.876 45.5359Z" fill="black"/>
<path d="M74.0663 46.2894C74.4815 43.7276 72.7414 41.3142 70.1796 40.8989C67.6178 40.4836 65.2043 42.2237 64.7891 44.7855C64.3738 47.3474 66.1139 49.7608 68.6757 50.1761C71.2375 50.5914 73.651 48.8513 74.0663 46.2894Z" fill="#F2F2F2"/>
<path d="M19.5659 55.0871C24.8409 55.0871 29.1172 50.8109 29.1172 45.5359C29.1172 40.2609 24.8409 35.9846 19.5659 35.9846C14.2909 35.9846 10.0146 40.2609 10.0146 45.5359C10.0146 50.8109 14.2909 55.0871 19.5659 55.0871Z" fill="black"/>
<path d="M24.2059 46.2894C24.6212 43.7276 22.8811 41.3142 20.3193 40.8989C17.7574 40.4836 15.344 42.2237 14.9287 44.7855C14.5134 47.3474 16.2535 49.7608 18.8154 50.1761C21.3772 50.5914 23.7906 48.8513 24.2059 46.2894Z" fill="#F2F2F2"/>
<path d="M89.0214 36.1508H93.1152V32.2543H89.0214V36.1508Z" fill="#CE3836"/>
<path d="M84.9266 36.1508H89.0205V32.2543H84.9266V36.1508Z" fill="#FF524F"/>
<path d="M114.319 36.1508H118.413V32.2543H114.319V36.1508Z" fill="#CE3836"/>
<path d="M32.1631 24.7606H38.3244C38.3245 25.3046 38.1087 25.8264 37.7245 26.2115C37.3403 26.5966 36.819 26.8136 36.275 26.815H34.2174C33.6726 26.815 33.15 26.5985 32.7648 26.2133C32.3795 25.828 32.1631 25.3055 32.1631 24.7606V24.7606Z" fill="#CE3836"/>
<path d="M32.1631 24.7606H38.3244C38.3247 24.9636 38.2849 25.1646 38.2074 25.3522C38.1298 25.5397 38.0161 25.7102 37.8727 25.8538C37.7292 25.9974 37.5589 26.1113 37.3714 26.189C37.1839 26.2667 36.983 26.3067 36.78 26.3067H33.7092C33.2991 26.3067 32.9059 26.1438 32.6159 25.8539C32.326 25.5639 32.1631 25.1707 32.1631 24.7606V24.7606Z" fill="#222846"/>
<path d="M5.6082 34.2017C5.6082 33.2149 5.21621 32.2686 4.51848 31.5709C3.82075 30.8731 2.87443 30.4812 1.8877 30.4812V37.9238C2.37642 37.9238 2.86035 37.8275 3.31185 37.6405C3.76335 37.4534 4.17357 37.1792 4.51907 36.8335C4.86457 36.4879 5.13859 36.0775 5.32546 35.6259C5.51234 35.1744 5.60842 34.6904 5.6082 34.2017Z" fill="#F2F2F2"/>
<path d="M90.3076 39.1887H117.118C117.959 39.1887 118.767 39.5231 119.362 40.1184C119.958 40.7138 120.292 41.5212 120.292 42.3631C120.292 43.205 119.958 44.0124 119.362 44.6078C118.767 45.2031 117.959 45.5375 117.118 45.5375H90.3092C89.4673 45.5375 88.6599 45.2031 88.0645 44.6078C87.4692 44.0124 87.1348 43.205 87.1348 42.3631C87.1345 41.9463 87.2165 41.5335 87.3758 41.1484C87.5352 40.7633 87.7688 40.4133 88.0635 40.1185C88.3581 39.8237 88.708 39.5899 89.093 39.4303C89.478 39.2708 89.8908 39.1887 90.3076 39.1887V39.1887Z" fill="#161616"/>
<path d="M92.4172 42.3631C92.4172 42.0963 92.3381 41.8356 92.1899 41.6138C92.0417 41.392 91.831 41.2191 91.5846 41.117C91.3381 41.0149 91.0669 40.9882 90.8053 41.0403C90.5437 41.0923 90.3034 41.2208 90.1148 41.4094C89.9262 41.598 89.7977 41.8383 89.7456 42.1C89.6936 42.3616 89.7203 42.6328 89.8224 42.8792C89.9245 43.1256 90.0973 43.3363 90.3191 43.4845C90.5409 43.6327 90.8017 43.7118 91.0684 43.7118C91.4261 43.7118 91.7692 43.5697 92.0221 43.3168C92.2751 43.0639 92.4172 42.7208 92.4172 42.3631Z" fill="#F2F2F2"/>
<path d="M94.7403 42.3615C94.7403 42.2281 94.7008 42.0977 94.6267 41.9868C94.5526 41.8759 94.4473 41.7895 94.324 41.7385C94.2008 41.6874 94.0652 41.674 93.9344 41.7001C93.8036 41.7261 93.6834 41.7903 93.5891 41.8846C93.4948 41.9789 93.4306 42.0991 93.4046 42.2299C93.3785 42.3607 93.3919 42.4963 93.4429 42.6195C93.494 42.7427 93.5804 42.848 93.6913 42.9221C93.8022 42.9962 93.9326 43.0358 94.0659 43.0358C94.2448 43.0358 94.4163 42.9648 94.5428 42.8383C94.6693 42.7119 94.7403 42.5403 94.7403 42.3615Z" fill="#F2F2F2"/>
<path d="M115.018 42.3631C115.018 42.6298 115.097 42.8906 115.245 43.1124C115.393 43.3342 115.604 43.507 115.85 43.6091C116.097 43.7112 116.368 43.7379 116.629 43.6859C116.891 43.6338 117.131 43.5054 117.32 43.3168C117.509 43.1282 117.637 42.8878 117.689 42.6262C117.741 42.3646 117.714 42.0934 117.612 41.8469C117.51 41.6005 117.337 41.3898 117.116 41.2416C116.894 41.0934 116.633 41.0143 116.366 41.0143C116.009 41.0143 115.666 41.1564 115.413 41.4094C115.16 41.6623 115.018 42.0054 115.018 42.3631Z" fill="#F2F2F2"/>
<path d="M112.695 42.3615C112.695 42.4948 112.735 42.6252 112.809 42.7361C112.883 42.847 112.988 42.9334 113.112 42.9845C113.235 43.0355 113.37 43.0489 113.501 43.0228C113.632 42.9968 113.752 42.9326 113.847 42.8383C113.941 42.744 114.005 42.6238 114.031 42.493C114.057 42.3622 114.044 42.2266 113.993 42.1034C113.942 41.9801 113.855 41.8748 113.744 41.8007C113.633 41.7266 113.503 41.6871 113.37 41.6871C113.281 41.6871 113.193 41.7046 113.112 41.7385C113.03 41.7723 112.955 41.822 112.893 41.8846C112.83 41.9472 112.781 42.0216 112.747 42.1034C112.713 42.1852 112.695 42.2729 112.695 42.3615Z" fill="#F2F2F2"/>
<defs>
<radialGradient id="paint0_radial" cx="0" cy="0" r="1" gradientUnits="userSpaceOnUse" gradientTransform="translate(1040.48 9.89703) scale(11.9813 11.9804)">
<stop stop-color="#DC7628"/>
<stop offset="0.475" stop-color="#C01C24"/>
<stop offset="1" stop-color="#97221F"/>
</radialGradient>
<radialGradient id="paint1_radial" cx="0" cy="0" r="1" gradientUnits="userSpaceOnUse" gradientTransform="translate(579.825 9.89487) scale(11.9761 11.9915)">
<stop stop-color="#DC7628"/>
<stop offset="0.475" stop-color="#C01C24"/>
<stop offset="1" stop-color="#97221F"/>
</radialGradient>
<radialGradient id="paint2_radial" cx="0" cy="0" r="1" gradientUnits="userSpaceOnUse" gradientTransform="translate(423.888 11.3888) scale(13.5715 13.5734)">
<stop stop-color="#FFDA9B"/>
<stop offset="0.294" stop-color="#FFB338"/>
<stop offset="0.703" stop-color="#FA8A25"/>
<stop offset="1" stop-color="#F26622"/>
</radialGradient>
</defs>
</svg>
