<svg width="257" height="64" viewBox="0 0 257 64" fill="none" xmlns="http://www.w3.org/2000/svg">
<path d="M8.0878 40.8692C8.42905 41.4119 8.80444 41.9884 9.24807 42.5311C6.85928 41.5136 5.35775 39.8856 4.47048 38.0881C3.68559 36.494 3.37846 34.7303 3.34434 33.1024C3.31021 31.9831 3.41259 30.8978 3.58322 29.9821C3.20783 30.5247 2.86658 31.0674 2.55945 31.61C4.64111 27.7436 7.84892 24.5555 11.7734 22.4866C8.46318 25.946 6.24501 29.6768 6.07439 33.5772C5.93788 35.9513 6.55215 38.3933 8.0878 40.8692Z" fill="url(#paint0_radial)"/>
<path d="M35.1152 33.1022C34.9446 36.2225 33.3066 38.6984 31.6685 40.3603C30.7471 41.31 29.8258 41.9883 29.1774 42.3614C31.3273 38.461 31.805 35.3407 31.2932 32.8309C30.9178 30.8638 29.9281 29.2697 28.6996 28.0148C28.1195 27.4382 27.5052 26.9295 26.8909 26.4547C26.8227 26.4207 26.7886 26.3868 26.7544 26.3529C26.7886 26.4207 26.7886 26.4886 26.8227 26.5564C28.3242 31.1012 27.1981 33.6788 25.287 34.5946C25.014 34.7302 24.7069 34.832 24.3998 34.8659C23.9561 34.9337 23.5125 34.9676 23.0348 34.8998C20.0658 34.4589 19.5198 28.6931 24.2974 23.9448C25.1505 23.0969 26.1061 22.0455 26.9933 20.8924C27.0957 20.7906 27.164 20.655 27.2663 20.5532C27.6758 20.655 28.0853 20.7567 28.4949 20.8924C28.7337 20.9602 28.9726 21.0281 29.1774 21.0959C29.7916 21.2994 30.3718 21.5368 30.986 21.7742C32.0439 22.249 33.0677 22.7917 34.0573 23.4022C33.8867 25.1319 34.0573 27.2347 34.7398 29.7785C35.0811 30.9655 35.1835 32.0848 35.1152 33.1022Z" fill="url(#paint1_radial)"/>
<path d="M8.08782 40.8691C8.42908 41.4117 8.80446 41.9883 9.24809 42.531C4.77764 40.6656 3.41261 36.5956 3.34436 33.1022C3.58324 32.5935 3.82212 32.1187 4.061 31.6439C4.36813 31.1012 4.70939 30.5585 5.08477 30.0159C4.53876 33.1023 4.74351 37.8844 8.08782 40.8691Z" fill="#BC1C24"/>
<path d="M25.7989 23.9788C21.0896 28.6592 21.5674 34.3572 24.3998 34.9337C23.9561 35.0016 23.5125 35.0355 23.0348 34.9677C20.0658 34.5267 19.5198 28.761 24.2974 24.0127C25.2529 23.063 26.2767 21.9099 27.2663 20.5872C27.6758 20.6889 28.0853 20.7907 28.4949 20.9263C27.6076 22.0795 26.6521 23.097 25.7989 23.9788Z" fill="#BC1C24"/>
<path d="M31.6686 40.3605C30.7472 41.3101 29.8258 41.9884 29.1774 42.3615C33.0336 35.4087 31.4639 30.8978 28.6997 28.0489C28.5632 27.5401 28.4267 26.9635 28.2219 26.387C31.7027 28.795 34.8423 33.1024 31.6686 40.3605Z" fill="#BC1C24"/>
<path d="M44.3292 41.9883C44.3292 42.4293 44.3292 42.8363 44.295 43.2772C43.6125 54.8426 33.9891 64.0339 22.1816 64.0339C18.735 64.0339 15.4589 63.2538 12.5582 61.8294C6.99575 59.15 2.73005 54.266 0.921392 48.3307C0.341256 46.3296 0 44.1929 0 41.9883C0 38.2576 0.955517 34.7303 2.59355 31.61C2.90068 31.0673 3.24193 30.5246 3.61732 29.982C2.90068 33.7467 3.37844 40.0551 9.28217 42.531C3.61732 35.3408 5.97198 28.4558 11.8075 22.5204C12.9336 21.3673 14.1963 20.248 15.5272 19.1627C23.8879 12.5151 27.8124 8.17382 25.0823 0C34.1256 7.25808 31.2249 15.2284 27.2664 20.5533C26.2767 21.876 25.253 23.0291 24.2974 23.9788C19.5198 28.7271 20.0659 34.5268 23.0348 34.9338C26.0037 35.3747 28.9385 32.7631 26.7204 26.3869C30.5083 28.9984 33.8867 33.8824 29.1774 42.3614C31.3614 41.0387 36.5485 36.4939 34.7399 29.7785C34.0574 27.2348 33.8867 25.132 34.0574 23.4022C38.2548 26.0477 41.4626 30.0837 43.1007 34.832C43.8855 37.1044 44.3292 39.4785 44.3292 41.9883Z" fill="url(#paint2_radial)"/>
<path d="M43.1347 34.866C41.4967 30.1177 38.2548 26.0817 34.0914 23.4362C34.6716 17.3991 39.2785 16.0425 39.2785 16.0425C34.3644 22.724 40.6094 26.8279 43.1347 34.866Z" fill="#FDC546"/>
<path d="M15.0835 45.0068C15.0835 45.6851 14.5375 46.4991 13.7868 46.7365C12.5582 47.3131 11.6027 47.8897 11.125 50.0942C11.125 50.1281 11.125 50.1621 11.0908 50.196C10.9202 51.0439 10.8178 52.1292 10.8178 53.5198C10.7837 55.8939 10.5448 57.5558 10.2718 58.709L4.09509 51.8579C5.39187 51.01 6.65451 50.4334 7.4394 50.0603C7.91716 49.8229 8.39492 49.5176 8.80443 49.1446C10.033 48.0253 10.8861 46.3295 10.8861 44.9389C10.8861 44.7354 10.852 44.5659 10.8178 44.3624C10.7837 44.1928 10.7496 44.0232 10.7837 43.8536C10.7837 42.2596 12.8995 41.9543 13.2749 43.8875C14.6058 43.718 15.0835 44.3285 15.0835 45.0068Z" fill="#FDC546"/>
<path d="M15.0835 45.0068C15.0835 45.6851 14.5375 46.4991 13.7868 46.7365C12.5582 47.3131 11.6027 47.8897 11.125 50.0942C11.125 50.1281 11.125 50.1621 11.0908 50.196C10.9202 51.0439 10.8178 52.1292 10.8178 53.5198C10.7837 55.8939 10.5448 57.5558 10.2718 58.709C7.74653 56.9114 5.63075 54.5712 4.09509 51.8579C5.39187 51.01 6.65451 50.4334 7.4394 50.0603C7.91716 49.8229 8.39492 49.5176 8.80443 49.1446C10.033 48.0253 10.8861 46.3295 10.8861 44.9389C10.8861 44.7354 10.852 44.5659 10.8178 44.3624C10.7837 44.1928 10.7496 44.0232 10.7837 43.8536C10.7837 42.2596 12.8995 41.9543 13.2749 43.8875C14.6058 43.718 15.0835 44.3285 15.0835 45.0068Z" fill="white" stroke="white" stroke-width="0.5" stroke-miterlimit="10"/>
<path d="M42.657 43.2432C42.0086 53.9268 33.1018 62.4059 22.1475 62.4059C18.9397 62.4059 15.9025 61.6936 13.2066 60.3709C13.0018 60.2691 12.8312 60.1674 12.6265 60.0996C13.1725 57.6915 15.2883 55.86 17.8818 55.7244C19.6905 55.6226 21.3626 56.3688 22.4546 57.6237C23.376 55.9957 25.1164 54.8425 27.1299 54.7408C27.6076 54.7069 28.0512 54.7408 28.4949 54.8425C29.4163 53.1806 31.1567 52.0275 33.2042 51.9257C33.7843 51.8918 34.3645 51.9596 34.9105 52.0953C35.6271 51.7222 36.412 51.4848 37.2652 51.4509C37.5723 51.417 37.9135 51.4509 38.2207 51.4848C37.8794 50.8065 37.6405 50.0264 37.6064 49.2124C37.4699 46.16 39.6881 43.5823 42.657 43.2432Z" fill="white"/>
<path d="M19.9294 61.558C20.344 61.558 20.6801 61.2239 20.6801 60.8118C20.6801 60.3997 20.344 60.0657 19.9294 60.0657C19.5147 60.0657 19.1786 60.3997 19.1786 60.8118C19.1786 61.2239 19.5147 61.558 19.9294 61.558Z" fill="#FDC546"/>
<path d="M39.8588 47.5167C40.1603 47.5167 40.4048 47.2738 40.4048 46.9741C40.4048 46.6744 40.1603 46.4314 39.8588 46.4314C39.5572 46.4314 39.3127 46.6744 39.3127 46.9741C39.3127 47.2738 39.5572 47.5167 39.8588 47.5167Z" fill="#FDC546"/>
<path d="M26.7204 60.6085C26.9277 60.6085 27.0957 60.4414 27.0957 60.2354C27.0957 60.0293 26.9277 59.8623 26.7204 59.8623C26.513 59.8623 26.345 60.0293 26.345 60.2354C26.345 60.4414 26.513 60.6085 26.7204 60.6085Z" fill="#FDC546"/>
<path d="M35.9342 53.2147C36.1415 53.2147 36.3096 53.0476 36.3096 52.8416C36.3096 52.6355 36.1415 52.4685 35.9342 52.4685C35.7269 52.4685 35.5588 52.6355 35.5588 52.8416C35.5588 53.0476 35.7269 53.2147 35.9342 53.2147Z" fill="#FDC546"/>
<path d="M24.5364 57.4881C24.7437 57.4881 24.9118 57.3211 24.9118 57.115C24.9118 56.909 24.7437 56.7419 24.5364 56.7419C24.3291 56.7419 24.161 56.909 24.161 57.115C24.161 57.3211 24.3291 57.4881 24.5364 57.4881Z" fill="#FDC546"/>
<path d="M31.8391 58.6751C32.0464 58.6751 32.2145 58.5081 32.2145 58.302C32.2145 58.096 32.0464 57.929 31.8391 57.929C31.6318 57.929 31.4637 58.096 31.4637 58.302C31.4637 58.5081 31.6318 58.6751 31.8391 58.6751Z" fill="#FDC546"/>
<path d="M32.4193 55.1817C32.6266 55.1817 32.7947 55.0147 32.7947 54.8086C32.7947 54.6026 32.6266 54.4355 32.4193 54.4355C32.212 54.4355 32.0439 54.6026 32.0439 54.8086C32.0439 55.0147 32.212 55.1817 32.4193 55.1817Z" fill="#FDC546"/>
<path d="M15.5954 59.964C15.7462 59.964 15.8684 59.8426 15.8684 59.6927C15.8684 59.5429 15.7462 59.4214 15.5954 59.4214C15.4446 59.4214 15.3224 59.5429 15.3224 59.6927C15.3224 59.8426 15.4446 59.964 15.5954 59.964Z" fill="#FDC546"/>
<path d="M23.5467 40.9708C22.6253 41.7508 21.9428 42.4631 22.0793 44.4641C22.0793 44.4981 22.0793 44.4981 22.0793 44.532C22.1476 45.2781 22.3182 46.2278 22.6253 47.4488C22.6595 47.5166 22.6595 47.5844 22.6595 47.6523C22.2841 47.9236 21.9428 48.3306 21.7381 48.7715C21.6357 49.0089 21.5333 49.2803 21.4992 49.5516C21.4992 49.6194 21.4651 49.6873 21.4309 49.7551C21.1238 50.4673 20.1342 51.2474 19.1445 51.5866C18.9739 51.6544 18.8033 51.6883 18.5985 51.7222C18.4279 51.7561 18.2914 51.7561 18.1549 51.7561C18.0525 51.7561 17.9501 51.7561 17.8477 51.7561C16.9946 51.7901 15.732 51.824 14.3328 52.0953C14.2646 52.0953 14.1963 52.1292 14.1281 52.1292C14.7423 48.7037 17.7112 46.3295 18.9398 45.2442C19.281 44.939 19.6223 44.5659 19.8612 44.125C20.646 42.8701 20.9873 41.2421 20.646 40.0211C20.5778 39.8515 20.5437 39.682 20.4413 39.5463C20.373 39.4106 20.3048 39.241 20.2707 39.1054C19.8953 37.7487 21.6357 37.0026 22.4206 38.5288C23.5126 38.1218 24.0927 38.4949 24.2292 39.0715C24.434 39.7837 24.161 40.5977 23.5467 40.9708Z" fill="white"/>
<path d="M26.2426 51.858C26.0037 52.4346 25.2871 52.8755 24.5704 52.8077C23.376 52.8416 22.3864 52.9772 21.2261 54.6052C20.3047 54.1982 19.281 53.9608 18.2231 53.9608C18.0866 53.9608 17.9501 53.9608 17.8136 53.9608C15.5954 54.0626 13.6161 55.1818 12.3193 56.8437C12.4217 56.0297 12.49 55.1479 12.5241 54.1982C14.7081 53.3164 17.0287 53.3164 18.2572 53.2825C18.735 53.2486 19.2127 53.1807 19.6905 53.0112C21.0896 52.5363 22.3864 51.451 22.8983 50.3318C22.9665 50.1622 23.0007 49.9926 23.0348 49.8569C23.0689 49.6874 23.103 49.5517 23.1713 49.416C23.7514 48.1272 25.5601 48.602 25.2188 50.2979C26.3108 50.6709 26.5156 51.3493 26.2426 51.858Z" fill="white"/>
<path d="M15.0835 45.0068C15.0835 45.6851 14.5375 46.4991 13.7868 46.7365C12.5582 47.3131 11.6027 47.8897 11.125 50.0942C11.125 50.1281 11.125 50.1621 11.0908 50.196C10.9202 51.0439 10.8178 52.1292 10.8178 53.5198C10.7837 55.8939 10.5448 57.5558 10.2718 58.709C7.74653 56.9114 5.63075 54.5712 4.09509 51.8579C5.39187 51.01 6.65451 50.4334 7.4394 50.0603C7.91716 49.8229 8.39492 49.5176 8.80443 49.1446C10.033 48.0253 10.8861 46.3295 10.8861 44.9389C10.8861 44.7354 10.852 44.5659 10.8178 44.3624C10.7837 44.1928 10.7496 44.0232 10.7837 43.8536C10.7837 42.2596 12.8995 41.9543 13.2749 43.8875C14.6058 43.718 15.0835 44.3285 15.0835 45.0068Z" fill="white" stroke="white" stroke-width="0.5" stroke-miterlimit="10"/>
<path d="M68.9678 42.8362H65.0775V47.9915C65.0775 48.8394 64.395 49.5177 63.5419 49.5177H59.4468C58.5936 49.5177 57.9111 48.8394 57.9111 47.9915V25.912C57.9111 25.0641 58.5936 24.3857 59.4468 24.3857H69.4797C76.3731 24.3857 80.7071 27.947 80.7071 33.6788C80.7071 37.3757 78.8984 40.089 75.7588 41.6152L79.5809 47.1436C80.2634 48.1611 79.5468 49.5177 78.3183 49.5177H74.3938C73.8819 49.5177 73.4042 49.2803 73.1312 48.8394L68.9678 42.8362ZM69.0361 29.9819H65.0775V37.3418H69.0361C72.005 37.3418 73.4724 35.9851 73.4724 33.6788C73.4724 31.3386 72.005 29.9819 69.0361 29.9819Z" fill="white"/>
<path d="M82.8569 24.2841C82.8569 22.2491 84.5291 20.655 87.0544 20.655C89.5797 20.655 91.2518 22.1134 91.2518 24.1823C91.2518 26.319 89.5797 27.9131 87.0544 27.9131C84.5291 27.9131 82.8569 26.319 82.8569 24.2841ZM85.1433 30.0498H88.9313C89.7844 30.0498 90.4669 30.7282 90.4669 31.5761V47.9915C90.4669 48.8395 89.7844 49.5178 88.9313 49.5178H85.1433C84.2902 49.5178 83.6077 48.8395 83.6077 47.9915V31.5761C83.6418 30.7282 84.3243 30.0498 85.1433 30.0498Z" fill="white"/>
<path d="M93.0264 39.7499C93.0264 33.9163 97.6674 29.7446 104.254 29.7446C107.973 29.7446 110.942 31.1352 112.614 33.5433C113.126 34.3233 112.887 35.3408 112.068 35.7817L109.304 37.1723C108.656 37.5115 107.905 37.308 107.461 36.7314C106.574 35.6461 105.482 35.1373 104.22 35.1373C101.831 35.1373 99.9539 36.7992 99.9539 39.716C99.9539 42.7346 101.831 44.3965 104.22 44.3965C105.482 44.3965 106.574 43.9216 107.461 42.8024C107.905 42.2597 108.656 42.0562 109.304 42.3615L112.068 43.752C112.887 44.159 113.16 45.2105 112.614 45.9905C110.942 48.4325 107.973 49.7891 104.254 49.7891C97.6674 49.8231 93.0264 45.6853 93.0264 39.7499Z" fill="white"/>
<path d="M135.001 41.5136H120.771C121.351 43.4807 123.057 44.6339 125.582 44.6339C127.016 44.6339 128.108 44.3286 129.097 43.6842C129.712 43.3112 130.531 43.379 131.008 43.9216L132.612 45.5835C133.226 46.2279 133.192 47.2794 132.476 47.822C130.701 49.1448 128.347 49.857 125.378 49.857C118.416 49.857 113.911 45.5835 113.911 39.7839C113.911 33.9503 118.484 29.7786 124.661 29.7786C130.428 29.7786 135.138 33.4415 135.138 39.8517C135.103 40.3265 135.035 40.9709 135.001 41.5136ZM120.668 37.9185H128.688C128.312 35.8835 126.811 34.5947 124.695 34.5947C122.545 34.5947 121.078 35.8835 120.668 37.9185Z" fill="white"/>
<path d="M184.824 36.4262H188.066C188.919 36.4262 189.602 37.1046 189.602 37.9525V46.8385C186.667 48.9074 182.674 50.0267 178.989 50.0267C170.935 50.0267 165.066 44.6001 165.066 36.9689C165.066 29.3377 170.935 23.9111 179.16 23.9111C183.22 23.9111 186.599 25.0982 189.056 27.3028C189.738 27.9133 189.704 28.9647 189.056 29.5412L186.735 31.644C186.189 32.1528 185.302 32.1867 184.756 31.7119C183.255 30.4231 181.548 29.8126 179.535 29.8126C175.133 29.8126 172.232 32.7294 172.3 37.2063C172.403 41.1406 175.508 44.1931 179.501 44.1591C180.832 44.1591 182.06 43.8878 183.323 43.3452V37.9864C183.289 37.1046 183.971 36.4262 184.824 36.4262Z" fill="white"/>
<path d="M206.255 31.3725V34.2554C206.255 35.1033 205.573 35.7477 204.719 35.7477C201.955 35.7477 200.01 37.1383 200.01 40.5639V49.5178H193.151V31.576C193.151 30.7281 193.833 30.0498 194.687 30.0498H198.167C199.02 30.0498 199.703 30.7281 199.703 31.576V32.39C200.829 30.9995 202.467 30.1516 204.549 29.8463C205.436 29.7107 206.255 30.4568 206.255 31.3725Z" fill="white"/>
<path d="M207.62 24.2841C207.62 22.2491 209.292 20.655 211.818 20.655C214.343 20.655 216.015 22.1134 216.015 24.1823C216.015 26.319 214.343 27.9131 211.818 27.9131C209.292 27.9131 207.62 26.319 207.62 24.2841ZM209.907 30.0498H213.694C214.548 30.0498 215.23 30.7282 215.23 31.5761V47.9915C215.23 48.8395 214.548 49.5178 213.694 49.5178H209.907C209.053 49.5178 208.371 48.8395 208.371 47.9915V31.5761C208.371 30.7282 209.053 30.0498 209.907 30.0498Z" fill="white"/>
<path d="M220.52 22.8936H224.308C225.161 22.8936 225.843 23.5719 225.843 24.4198V47.9916C225.843 48.8395 225.161 49.5178 224.308 49.5178H220.52C219.667 49.5178 218.984 48.8395 218.984 47.9916V24.4198C218.984 23.5719 219.667 22.8936 220.52 22.8936Z" fill="white"/>
<path d="M231.133 22.8936H234.921C235.774 22.8936 236.456 23.5719 236.456 24.4198V47.9916C236.456 48.8395 235.774 49.5178 234.921 49.5178H231.133C230.28 49.5178 229.597 48.8395 229.597 47.9916V24.4198C229.597 23.5719 230.28 22.8936 231.133 22.8936Z" fill="white"/>
<path d="M239.255 46.4993L240.074 44.6339C240.415 43.8538 241.302 43.5146 242.087 43.8538C243.725 44.5321 245.704 44.9391 247.547 44.9391C249.868 44.9391 250.618 44.4304 250.618 43.6164C250.618 41.0048 239.05 43.9895 239.05 36.1887C239.05 32.5258 242.428 29.7446 248.571 29.7446C250.687 29.7446 252.939 30.0838 254.782 30.7282C255.635 31.0334 256.044 31.9831 255.669 32.7971L254.918 34.5947C254.577 35.3408 253.724 35.7139 252.973 35.4086C251.472 34.7982 250.004 34.5947 248.673 34.5947C246.353 34.5947 245.534 35.2391 245.534 35.9513C245.534 38.6307 257.068 35.7478 257.068 43.4468C257.068 47.0419 253.758 49.8231 247.376 49.8231C244.749 49.8231 242.087 49.3143 240.108 48.5003C239.289 48.1951 238.913 47.2793 239.255 46.4993Z" fill="white"/>
<path d="M155.101 23.7753V38.7324L145.17 26.7939C144.419 25.8782 143.293 25.3694 142.099 25.3694C139.881 25.3694 138.106 27.167 138.106 29.3376V63.3895H138.243L145.102 56.5724V37.1044L155.067 49.043C155.817 49.9587 156.944 50.4674 158.138 50.4674C160.356 50.4674 162.131 48.6699 162.131 46.4992V16.8225L155.101 23.7753Z" fill="white"/>
<path d="M76.066 58.0986V59.9979H79.1032V60.9815H76.066V63.3556H74.9058V57.115H79.4786V58.0986H76.066Z" fill="white"/>
<path d="M91.8663 63.3895L90.5695 61.558C90.5012 61.558 90.3989 61.558 90.3306 61.558H88.8973V63.3895H87.7371V57.1489H90.3306C91.9686 57.1489 92.9924 57.9968 92.9924 59.3535C92.9924 60.3031 92.5146 60.9815 91.6615 61.3206L93.0948 63.3556H91.8663V63.3895ZM90.2965 58.1325H88.9315V60.6084H90.2965C91.3202 60.6084 91.8321 60.1336 91.8321 59.3535C91.8321 58.5734 91.3202 58.1325 90.2965 58.1325Z" fill="white"/>
<path d="M106.199 62.4059V63.3895H101.49V57.1489H106.062V58.1325H102.65V59.7605H105.687V60.7101H102.65V62.4399H106.199V62.4059Z" fill="white"/>
<path d="M114.15 62.7111L114.56 61.7954C115.072 62.2024 115.856 62.4737 116.641 62.4737C117.631 62.4737 118.04 62.1345 118.04 61.6597C118.04 60.3031 114.321 61.1849 114.321 58.8786C114.321 57.8611 115.14 57.0132 116.846 57.0132C117.597 57.0132 118.382 57.2167 118.928 57.5558L118.552 58.4716C117.972 58.1324 117.358 57.9968 116.812 57.9968C115.856 57.9968 115.447 58.3698 115.447 58.8447C115.447 60.1674 119.167 59.3195 119.167 61.5919C119.167 62.5755 118.348 63.4573 116.641 63.4573C115.618 63.4573 114.662 63.152 114.15 62.7111Z" fill="white"/>
<path d="M133.056 57.1489V63.3895H131.896V60.7101H128.654V63.3895H127.493V57.1489H128.654V59.7266H131.896V57.1489H133.056Z" fill="white"/>
<path d="M168.854 58.1325H166.772V57.1489H172.096V58.1325H170.014V63.3895H168.854V58.1325Z" fill="white"/>
<path d="M183.903 61.9311H180.763L180.149 63.3895H178.955L181.787 57.1489H182.948L185.78 63.3895H184.551L183.903 61.9311ZM183.528 61.0154L182.333 58.3021L181.173 61.0154H183.528Z" fill="white"/>
<path d="M193.185 62.7111L193.595 61.7954C194.107 62.2024 194.892 62.4737 195.676 62.4737C196.666 62.4737 197.076 62.1345 197.076 61.6597C197.076 60.3031 193.356 61.1849 193.356 58.8786C193.356 57.8611 194.175 57.0132 195.881 57.0132C196.632 57.0132 197.417 57.2167 197.963 57.5558L197.587 58.4716C197.007 58.1324 196.393 57.9968 195.847 57.9968C194.892 57.9968 194.482 58.3698 194.482 58.8447C194.482 60.1674 198.202 59.3195 198.202 61.5919C198.202 62.5755 197.383 63.4573 195.676 63.4573C194.687 63.4573 193.697 63.152 193.185 62.7111Z" fill="white"/>
<path d="M207.689 58.1325H205.607V57.1489H210.931V58.1325H208.849V63.3895H207.689V58.1325Z" fill="white"/>
<path d="M221.612 61.185V63.3895H220.452V61.2189L217.995 57.1489H219.257L221.1 60.2014L222.943 57.1489H224.103L221.612 61.185Z" fill="white"/>
<defs>
<radialGradient id="paint0_radial" cx="0" cy="0" r="1" gradientUnits="userSpaceOnUse" gradientTransform="translate(17.8781 23.0494) scale(39.9307 39.6857)">
<stop stop-color="#E38D2E"/>
<stop offset="0.4746" stop-color="#CD2926"/>
<stop offset="1" stop-color="#AB2F22"/>
</radialGradient>
<radialGradient id="paint1_radial" cx="0" cy="0" r="1" gradientUnits="userSpaceOnUse" gradientTransform="translate(17.878 23.0493) scale(39.9307 39.6857)">
<stop stop-color="#E38D2E"/>
<stop offset="0.4746" stop-color="#CD2926"/>
<stop offset="1" stop-color="#AB2F22"/>
</radialGradient>
<radialGradient id="paint2_radial" cx="0" cy="0" r="1" gradientUnits="userSpaceOnUse" gradientTransform="translate(5.02131 27.9951) scale(45.1865 44.9093)">
<stop stop-color="#FFE6B4"/>
<stop offset="0.2944" stop-color="#FDC546"/>
<stop offset="0.703" stop-color="#F69F2B"/>
<stop offset="1" stop-color="#EF7927"/>
</radialGradient>
</defs>
</svg>
