<svg width="9" height="14" viewBox="0 0 9 14" fill="none" xmlns="http://www.w3.org/2000/svg">
<path d="M4.35 0.799989C3.77864 0.799594 3.21281 0.911841 2.68486 1.13031C2.15692 1.34878 1.67722 1.66918 1.27321 2.07319C0.869193 2.47721 0.54879 2.95691 0.330322 3.48485C0.111854 4.01279 -0.000393414 4.57863 1.036e-06 5.14999C1.036e-06 8.41299 4.35 13.229 4.35 13.229C4.35 13.229 8.7 8.41299 8.7 5.14999C8.7004 4.57863 8.58815 4.01279 8.36968 3.48485C8.15121 2.95691 7.83081 2.47721 7.4268 2.07319C7.02278 1.66918 6.54309 1.34878 6.01514 1.13031C5.4872 0.911841 4.92136 0.799594 4.35 0.799989ZM4.35 6.69999C4.04231 6.70078 3.74131 6.61021 3.48514 6.43976C3.22898 6.26931 3.02918 6.02665 2.91106 5.74253C2.79295 5.45841 2.76184 5.14562 2.82167 4.8438C2.88151 4.54198 3.02959 4.26472 3.24716 4.04715C3.46473 3.82958 3.742 3.68149 4.04382 3.62166C4.34563 3.56183 4.65842 3.59294 4.94254 3.71105C5.22666 3.82916 5.46932 4.02896 5.63977 4.28513C5.81022 4.5413 5.90079 4.8423 5.9 5.14999C5.89894 5.56075 5.7353 5.95438 5.44485 6.24484C5.1544 6.53529 4.76076 6.69893 4.35 6.69999Z" fill="black"/>
</svg>
