<svg width="44" height="44" viewBox="0 0 44 44" fill="none" xmlns="http://www.w3.org/2000/svg">
<circle opacity="0.88" cx="22" cy="22" r="22" fill="white"/>
<path d="M28 18C28 16.4087 27.3679 14.8826 26.2426 13.7574C25.1174 12.6321 23.5913 12 22 12C20.4087 12 18.8826 12.6321 17.7574 13.7574C16.6321 14.8826 16 16.4087 16 18C16 25 13 27 13 27H31C31 27 28 25 28 18Z" stroke="#AE0400" stroke-width="2" stroke-linecap="round" stroke-linejoin="round"/>
<path d="M23.7295 31C23.5537 31.3031 23.3014 31.5547 22.9978 31.7295C22.6941 31.9044 22.3499 31.9965 21.9995 31.9965C21.6492 31.9965 21.3049 31.9044 21.0013 31.7295C20.6977 31.5547 20.4453 31.3031 20.2695 31" stroke="#AE0400" stroke-width="2" stroke-linecap="round" stroke-linejoin="round"/>
</svg>
