<svg width="80" height="40" viewBox="0 0 80 40" fill="none" xmlns="http://www.w3.org/2000/svg">
<rect x="40" width="40" height="40" fill="#EB2924"/>
<path d="M30.5624 23.9078H30.549V21.2975C30.55 21.2401 30.5389 21.1831 30.5164 21.1303L28.8907 16.8298C28.8586 16.7448 28.8015 16.6715 28.7269 16.6197C28.6522 16.5679 28.5636 16.54 28.4727 16.5397H25.8189V13.7296C25.8187 13.4057 25.69 13.0951 25.461 12.866C25.2321 12.6369 24.9216 12.508 24.5977 12.5076H16.6972C16.8425 12.7942 16.9587 13.0946 17.0441 13.4044H24.5977C24.6838 13.4047 24.7663 13.439 24.8271 13.5C24.8879 13.5609 24.922 13.6435 24.922 13.7296V23.9078H12.1008V19.0105C11.7949 18.9619 11.4945 18.8835 11.2039 18.7765V23.9053H11.1905C11.1313 23.9055 11.0726 23.9175 11.018 23.9405C10.9634 23.9636 10.914 23.9972 10.8724 24.0395C10.8309 24.0818 10.7982 24.1319 10.7762 24.1869C10.7542 24.2419 10.7433 24.3008 10.7442 24.36V27.1184C10.7442 27.1772 10.7558 27.2355 10.7783 27.2898C10.8008 27.3442 10.8338 27.3936 10.8754 27.4352C10.917 27.4768 10.9664 27.5098 11.0208 27.5323C11.0751 27.5548 11.1334 27.5664 11.1922 27.5664H13.2735C13.2023 27.9048 13.2076 28.2549 13.2889 28.5911C13.3702 28.9272 13.5255 29.241 13.7434 29.5095C13.9614 29.7781 14.2365 29.9946 14.5487 30.1433C14.861 30.292 15.2024 30.3692 15.5483 30.3692C15.8941 30.3692 16.2356 30.292 16.5479 30.1433C16.8601 29.9946 17.1352 29.7781 17.3532 29.5095C17.5711 29.241 17.7264 28.9272 17.8077 28.5911C17.889 28.2549 17.8942 27.9048 17.8231 27.5664H24.4264C24.3552 27.9048 24.3605 28.2549 24.4418 28.5911C24.523 28.9272 24.6783 29.241 24.8963 29.5095C25.1142 29.7781 25.3893 29.9946 25.7016 30.1433C26.0138 30.292 26.3553 30.3692 26.7011 30.3692C27.047 30.3692 27.3885 30.292 27.7007 30.1433C28.013 29.9946 28.2881 29.7781 28.506 29.5095C28.724 29.241 28.8792 28.9272 28.9605 28.5911C29.0418 28.2549 29.0471 27.9048 28.9759 27.5664H30.5641C30.6828 27.5662 30.7966 27.5189 30.8806 27.4349C30.9646 27.3509 31.0119 27.2371 31.0121 27.1184V24.36C31.0119 24.2413 30.9646 24.1275 30.8806 24.0435C30.7966 23.9595 30.6828 23.9122 30.5641 23.912L30.5624 23.9078ZM25.8189 17.4366H28.1593L29.4515 20.8494H25.8189V17.4366ZM25.8189 21.7455H29.6521V23.907H25.8189V21.7455ZM15.5462 29.4847C15.261 29.487 14.9816 29.4046 14.7434 29.2478C14.5051 29.0911 14.3188 28.8671 14.2081 28.6043C14.0974 28.3415 14.0672 28.0518 14.1214 27.7718C14.1756 27.4918 14.3118 27.2342 14.5126 27.0318C14.7134 26.8293 14.9698 26.6911 15.2494 26.6346C15.5289 26.5781 15.8189 26.6059 16.0826 26.7145C16.3463 26.8231 16.5718 27.0075 16.7304 27.2445C16.8891 27.4814 16.9738 27.7602 16.9738 28.0453C16.9752 28.4257 16.8255 28.791 16.5576 29.061C16.2898 29.3311 15.9257 29.4837 15.5454 29.4855L15.5462 29.4847ZM26.6982 29.4847C26.4131 29.487 26.1336 29.4046 25.8954 29.2478C25.6572 29.0911 25.4709 28.8671 25.3601 28.6043C25.2494 28.3415 25.2192 28.0518 25.2734 27.7718C25.3276 27.4918 25.4638 27.2342 25.6646 27.0318C25.8654 26.8293 26.1219 26.6911 26.4014 26.6346C26.6809 26.5781 26.9709 26.6059 27.2346 26.7145C27.4983 26.8231 27.7238 27.0075 27.8825 27.2445C28.0411 27.4814 28.1259 27.7602 28.1259 28.0453C28.1272 28.4257 27.9775 28.791 27.7097 29.061C27.4418 29.3311 27.0777 29.4837 26.6974 29.4855L26.6982 29.4847ZM30.1144 26.6653H28.5722C28.3575 26.3691 28.0757 26.1279 27.7498 25.9616C27.4239 25.7953 27.0632 25.7086 26.6974 25.7086C26.3315 25.7086 25.9709 25.7953 25.645 25.9616C25.3191 26.1279 25.0372 26.3691 24.8226 26.6653H17.4202C17.2055 26.3691 16.9237 26.1279 16.5978 25.9616C16.2719 25.7953 15.9112 25.7086 15.5454 25.7086C15.1795 25.7086 14.8188 25.7953 14.4929 25.9616C14.1671 26.1279 13.8852 26.3691 13.6705 26.6653H11.6386V24.8039H30.111L30.1144 26.6653Z" fill="#E94542"/>
<path d="M13.0442 19.6525C15.6995 19.6525 17.852 17.4917 17.852 14.8262C17.852 12.1608 15.6995 10 13.0442 10C10.3889 10 8.23633 12.1608 8.23633 14.8262C8.23633 17.4917 10.3889 19.6525 13.0442 19.6525Z" stroke="#E94542"/>
<path d="M13.8801 15.4849H13.0442C12.9254 15.4849 12.8114 15.4377 12.7274 15.3537C12.6434 15.2697 12.5962 15.1557 12.5962 15.0369V13.6369C12.5962 13.5179 12.6434 13.4039 12.7275 13.3198C12.8116 13.2357 12.9257 13.1884 13.0446 13.1884C13.1636 13.1884 13.2776 13.2357 13.3617 13.3198C13.4458 13.4039 13.4931 13.5179 13.4931 13.6369V14.5881H13.8809C13.9998 14.5881 14.1139 14.6353 14.198 14.7194C14.2821 14.8035 14.3293 14.9176 14.3293 15.0365C14.3293 15.1554 14.2821 15.2695 14.198 15.3536C14.1139 15.4377 13.9998 15.4849 13.8809 15.4849H13.8801Z" fill="#E94542"/>
<path d="M70.9384 23.7233H70.925V21.1129C70.926 21.0555 70.9149 20.9985 70.8924 20.9457L69.2666 16.6452C69.2346 16.5602 69.1775 16.4869 69.1028 16.4351C69.0282 16.3833 68.9396 16.3554 68.8487 16.3552H66.1949V13.545C66.1947 13.2211 66.0659 12.9106 65.837 12.6815C65.6081 12.4524 65.2976 12.3234 64.9737 12.323H57.0732C57.2185 12.6096 57.3347 12.9101 57.42 13.2199H64.9737C65.0598 13.2201 65.1423 13.2544 65.2031 13.3154C65.2639 13.3764 65.298 13.4589 65.298 13.545V23.7233H52.4768V18.826C52.1709 18.7773 51.8705 18.6989 51.5799 18.5919V23.7208H51.5665C51.5073 23.721 51.4486 23.7329 51.394 23.756C51.3394 23.779 51.2899 23.8126 51.2484 23.8549C51.2069 23.8972 51.1742 23.9473 51.1522 24.0024C51.1302 24.0574 51.1193 24.1162 51.1202 24.1755V26.9338C51.1202 26.9926 51.1318 27.0509 51.1543 27.1052C51.1768 27.1596 51.2098 27.209 51.2514 27.2506C51.293 27.2922 51.3424 27.3252 51.3967 27.3477C51.4511 27.3702 51.5094 27.3818 51.5682 27.3818H53.6495C53.5783 27.7203 53.5836 28.0703 53.6649 28.4065C53.7462 28.7426 53.9014 29.0564 54.1194 29.325C54.3373 29.5935 54.6125 29.81 54.9247 29.9587C55.2369 30.1074 55.5784 30.1846 55.9243 30.1846C56.2701 30.1846 56.6116 30.1074 56.9238 29.9587C57.2361 29.81 57.5112 29.5935 57.7291 29.325C57.9471 29.0564 58.1024 28.7426 58.1837 28.4065C58.265 28.0703 58.2702 27.7203 58.1991 27.3818H64.8023C64.7312 27.7203 64.7364 28.0703 64.8177 28.4065C64.899 28.7426 65.0543 29.0564 65.2722 29.325C65.4902 29.5935 65.7653 29.81 66.0775 29.9587C66.3898 30.1074 66.7313 30.1846 67.0771 30.1846C67.423 30.1846 67.7645 30.1074 68.0767 29.9587C68.3889 29.81 68.6641 29.5935 68.882 29.325C69.0999 29.0564 69.2552 28.7426 69.3365 28.4065C69.4178 28.0703 69.4231 27.7203 69.3519 27.3818H70.94C71.0588 27.3816 71.1726 27.3343 71.2566 27.2504C71.3406 27.1664 71.3878 27.0526 71.3881 26.9338V24.1755C71.3878 24.0567 71.3406 23.9429 71.2566 23.8589C71.1726 23.7749 71.0588 23.7277 70.94 23.7274L70.9384 23.7233ZM66.1949 17.2521H68.5353L69.8275 20.6649H66.1949V17.2521ZM66.1949 21.5609H70.0281V23.7224H66.1949V21.5609ZM55.9222 29.3001C55.637 29.3024 55.3576 29.22 55.1194 29.0632C54.8811 28.9065 54.6948 28.6825 54.5841 28.4197C54.4733 28.1569 54.4432 27.8672 54.4974 27.5872C54.5516 27.3072 54.6877 27.0497 54.8886 26.8472C55.0894 26.6447 55.3458 26.5065 55.6253 26.45C55.9049 26.3935 56.1949 26.4213 56.4585 26.5299C56.7222 26.6385 56.9477 26.823 57.1064 27.0599C57.2651 27.2969 57.3498 27.5756 57.3498 27.8608C57.3512 28.2411 57.2015 28.6064 56.9336 28.8765C56.6658 29.1465 56.3017 29.2992 55.9213 29.3009L55.9222 29.3001ZM67.0742 29.3001C66.789 29.3024 66.5096 29.22 66.2714 29.0632C66.0331 28.9065 65.8468 28.6825 65.7361 28.4197C65.6254 28.1569 65.5952 27.8672 65.6494 27.5872C65.7036 27.3072 65.8398 27.0497 66.0406 26.8472C66.2414 26.6447 66.4978 26.5065 66.7774 26.45C67.0569 26.3935 67.3469 26.4213 67.6106 26.5299C67.8743 26.6385 68.0998 26.823 68.2584 27.0599C68.4171 27.2969 68.5018 27.5756 68.5018 27.8608C68.5032 28.2411 68.3535 28.6064 68.0856 28.8765C67.8178 29.1465 67.4537 29.2992 67.0734 29.3009L67.0742 29.3001ZM70.4903 26.4808H68.9482C68.7335 26.1845 68.4517 25.9433 68.1258 25.777C67.7999 25.6107 67.4392 25.524 67.0734 25.524C66.7075 25.524 66.3468 25.6107 66.0209 25.777C65.6951 25.9433 65.4132 26.1845 65.1985 26.4808H57.7962C57.5815 26.1845 57.2996 25.9433 56.9738 25.777C56.6479 25.6107 56.2872 25.524 55.9213 25.524C55.5555 25.524 55.1948 25.6107 54.8689 25.777C54.543 25.9433 54.2612 26.1845 54.0465 26.4808H52.0145V24.6193H70.487L70.4903 26.4808Z" fill="white"/>
<path d="M53.4202 19.4679C56.0755 19.4679 58.228 17.3071 58.228 14.6417C58.228 11.9762 56.0755 9.81543 53.4202 9.81543C50.7649 9.81543 48.6123 11.9762 48.6123 14.6417C48.6123 17.3071 50.7649 19.4679 53.4202 19.4679Z" stroke="white"/>
<path d="M54.256 15.3004H53.4202C53.3014 15.3004 53.1874 15.2532 53.1034 15.1691C53.0194 15.0851 52.9722 14.9712 52.9722 14.8523V13.4523C52.9722 13.3333 53.0194 13.2193 53.1035 13.1352C53.1876 13.0511 53.3017 13.0038 53.4206 13.0038C53.5395 13.0038 53.6536 13.0511 53.7377 13.1352C53.8218 13.2193 53.869 13.3333 53.869 13.4523V14.4035H54.2569C54.3758 14.4035 54.4899 14.4507 54.574 14.5348C54.6581 14.6189 54.7053 14.733 54.7053 14.8519C54.7053 14.9709 54.6581 15.0849 54.574 15.169C54.4899 15.2531 54.3758 15.3004 54.2569 15.3004H54.256Z" fill="white"/>
<path d="M70.0234 21.5564H66.1934V23.7164H70.0234V21.5564Z" fill="#FFC700"/>
<path d="M69.8234 20.6664H66.1934V17.2464H68.5334L69.8234 20.6664Z" fill="#FFC700"/>
<path d="M57.4833 13.2164H57.4233C57.3533 12.9564 57.2533 12.7064 57.1433 12.4664C56.3933 11.1864 55.0033 10.3164 53.4233 10.3164C51.0433 10.3164 49.1133 12.2564 49.1133 14.6364C49.1133 16.4964 50.2833 18.0864 51.9333 18.6964C51.9633 18.7164 51.9933 18.7264 52.0233 18.7264C52.1733 18.7664 52.3233 18.8064 52.4733 18.8264V18.8564C52.7833 18.9264 53.0933 18.9664 53.4233 18.9664C55.7933 18.9664 57.7233 17.0264 57.7233 14.6364C57.7233 14.1364 57.6433 13.6564 57.4833 13.2164ZM54.5733 15.1664C54.4933 15.2464 54.3733 15.2964 54.2533 15.2964H53.4233C53.3033 15.2964 53.1833 15.2464 53.1033 15.1664C53.0233 15.0864 52.9733 14.9664 52.9733 14.8464V13.4464C52.9733 13.3264 53.0233 13.2164 53.1033 13.1364C53.1833 13.0464 53.3033 12.9964 53.4233 12.9964C53.5433 12.9964 53.6533 13.0464 53.7333 13.1364C53.8233 13.2164 53.8733 13.3264 53.8733 13.4464V14.3964H54.2533C54.3733 14.3964 54.4933 14.4464 54.5733 14.5364C54.6533 14.6164 54.7033 14.7264 54.7033 14.8464C54.7033 14.9664 54.6533 15.0864 54.5733 15.1664Z" fill="#FFC700"/>
</svg>
