<svg width="80" height="40" viewBox="0 0 80 40" fill="none" xmlns="http://www.w3.org/2000/svg">
<rect x="40" width="40" height="40" fill="#EB2924"/>
<path d="M59.895 33.5346C59.805 33.5346 59.7165 33.5119 59.6375 33.4687C59.5586 33.4256 59.4917 33.3633 59.443 33.2876L56.943 29.4126C54.3853 28.7565 52.1184 27.2683 50.4994 25.1823C48.8803 23.0964 48.0011 20.5312 48 17.8906C48.0001 15.9905 48.4555 14.1181 49.3281 12.4302C50.2007 10.7423 51.4651 9.28805 53.0154 8.18936C54.5657 7.09067 56.3567 6.37949 58.2383 6.11541C60.12 5.85132 62.0376 6.04202 63.8304 6.67152C65.6232 7.30102 67.2391 8.351 68.5426 9.73349C69.8462 11.116 70.7994 12.7907 71.3225 14.6174C71.8456 16.4441 71.9233 18.3696 71.5492 20.2325C71.175 22.0954 70.3599 23.8416 69.172 25.3246C67.5574 27.3349 65.3358 28.7689 62.839 29.4126L60.339 33.2876C60.2911 33.3622 60.2255 33.4238 60.148 33.4669C60.0705 33.5099 59.9836 33.5332 59.895 33.5346ZM59.895 7.07564C57.2425 7.07455 54.6821 8.04818 52.7006 9.81144C50.719 11.5747 49.4544 14.0046 49.1473 16.6393C48.8402 19.2739 49.5119 21.9296 51.0347 24.1013C52.5576 26.2731 54.8254 27.8096 57.407 28.4186C57.5426 28.4505 57.6605 28.5336 57.736 28.6506L59.895 32.0006L62.054 28.6476C62.1295 28.5306 62.2474 28.4475 62.383 28.4156C64.9608 27.8031 67.224 26.2657 68.7434 24.0951C70.2628 21.9245 70.9326 19.2717 70.6258 16.64C70.3189 14.0083 69.0568 11.5808 67.0788 9.81797C65.1008 8.05515 62.5445 7.07968 59.895 7.07664V7.07564Z" fill="white"/>
<path d="M59.761 25.522C64.0473 25.522 67.522 22.0473 67.522 17.761C67.522 13.4747 64.0473 10 59.761 10C55.4747 10 52 13.4747 52 17.761C52 22.0473 55.4747 25.522 59.761 25.522Z" fill="#FFC700"/>
<path d="M63.0239 14.365H61.8059V14.277C61.8145 14.0024 61.7678 13.7289 61.6687 13.4727C61.5695 13.2165 61.4199 12.9828 61.2287 12.7855C61.0375 12.5883 60.8086 12.4314 60.5556 12.3243C60.3026 12.2172 60.0307 12.162 59.7559 12.162C59.4812 12.162 59.2093 12.2172 58.9563 12.3243C58.7033 12.4314 58.4744 12.5883 58.2832 12.7855C58.092 12.9828 57.9423 13.2165 57.8432 13.4727C57.744 13.7289 57.6974 14.0024 57.7059 14.277V14.365H56.4989C56.3562 14.365 56.2194 14.4217 56.1185 14.5226C56.0176 14.6235 55.9609 14.7603 55.9609 14.903V20.309C55.9612 20.7545 56.1379 21.1818 56.4523 21.4974C56.7668 21.813 57.1934 21.9912 57.6389 21.993H61.8739C62.3205 21.9928 62.7487 21.8153 63.0644 21.4995C63.3802 21.1838 63.5577 20.7556 63.5579 20.309V14.903C63.5579 14.761 63.5018 14.6248 63.4018 14.524C63.3017 14.4232 63.1659 14.3661 63.0239 14.365ZM58.7799 14.277C58.7799 14.0183 58.8827 13.7702 59.0656 13.5872C59.2486 13.4043 59.4967 13.3015 59.7554 13.3015C60.0142 13.3015 60.2623 13.4043 60.4452 13.5872C60.6282 13.7702 60.7309 14.0183 60.7309 14.277V14.365H58.7799V14.277ZM62.4859 20.309C62.4857 20.4702 62.4215 20.6247 62.3076 20.7387C62.1936 20.8526 62.0391 20.9168 61.8779 20.917H57.6389C57.4778 20.9168 57.3233 20.8526 57.2093 20.7387C57.0953 20.6247 57.0312 20.4702 57.0309 20.309V15.441H57.6999V16.383C57.6999 16.5257 57.7566 16.6626 57.8575 16.7635C57.9584 16.8643 58.0952 16.921 58.2379 16.921C58.3806 16.921 58.5175 16.8643 58.6183 16.7635C58.7192 16.6626 58.7759 16.5257 58.7759 16.383V15.441H60.7269V16.383C60.7269 16.5257 60.7836 16.6626 60.8845 16.7635C60.9854 16.8643 61.1223 16.921 61.2649 16.921C61.4076 16.921 61.5445 16.8643 61.6454 16.7635C61.7462 16.6626 61.8029 16.5257 61.8029 16.383V15.441H62.4829L62.4859 20.309Z" fill="white"/>
<path d="M19.895 33.5346C19.805 33.5346 19.7165 33.5119 19.6375 33.4687C19.5586 33.4256 19.4917 33.3633 19.443 33.2876L16.943 29.4126C14.3853 28.7565 12.1184 27.2683 10.4994 25.1823C8.88033 23.0964 8.00106 20.5312 8 17.8906C8.00006 15.9905 8.45547 14.1181 9.32809 12.4302C10.2007 10.7423 11.4651 9.28805 13.0154 8.18936C14.5657 7.09067 16.3567 6.37949 18.2383 6.11541C20.12 5.85132 22.0376 6.04202 23.8304 6.67152C25.6232 7.30102 27.2391 8.351 28.5426 9.73349C29.8462 11.116 30.7994 12.7907 31.3225 14.6174C31.8456 16.4441 31.9233 18.3696 31.5492 20.2325C31.175 22.0954 30.3599 23.8416 29.172 25.3246C27.5574 27.3349 25.3358 28.7689 22.839 29.4126L20.339 33.2876C20.2911 33.3622 20.2255 33.4238 20.148 33.4669C20.0705 33.5099 19.9836 33.5332 19.895 33.5346ZM19.895 7.07564C17.2425 7.07455 14.6821 8.04818 12.7006 9.81144C10.719 11.5747 9.45444 14.0046 9.14732 16.6393C8.84019 19.2739 9.5119 21.9296 11.0347 24.1013C12.5576 26.2731 14.8254 27.8096 17.407 28.4186C17.5426 28.4505 17.6605 28.5336 17.736 28.6506L19.895 32.0006L22.054 28.6476C22.1295 28.5306 22.2474 28.4475 22.383 28.4156C24.9608 27.8031 27.224 26.2657 28.7434 24.0951C30.2628 21.9245 30.9326 19.2717 30.6258 16.64C30.3189 14.0083 29.0568 11.5808 27.0788 9.81797C25.1008 8.05515 22.5445 7.07968 19.895 7.07664V7.07564Z" fill="#EB2924"/>
<path d="M19.761 25.522C24.0473 25.522 27.522 22.0473 27.522 17.761C27.522 13.4747 24.0473 10 19.761 10C15.4747 10 12 13.4747 12 17.761C12 22.0473 15.4747 25.522 19.761 25.522Z" fill="#EB2924"/>
<path d="M23.0239 14.365H21.8059V14.277C21.8145 14.0024 21.7678 13.7289 21.6687 13.4727C21.5695 13.2165 21.4199 12.9828 21.2287 12.7855C21.0375 12.5883 20.8086 12.4314 20.5556 12.3243C20.3026 12.2172 20.0307 12.162 19.7559 12.162C19.4812 12.162 19.2093 12.2172 18.9563 12.3243C18.7033 12.4314 18.4744 12.5883 18.2832 12.7855C18.092 12.9828 17.9423 13.2165 17.8432 13.4727C17.744 13.7289 17.6974 14.0024 17.7059 14.277V14.365H16.4989C16.3562 14.365 16.2194 14.4217 16.1185 14.5226C16.0176 14.6235 15.9609 14.7603 15.9609 14.903V20.309C15.9612 20.7545 16.1379 21.1818 16.4523 21.4974C16.7668 21.813 17.1934 21.9912 17.6389 21.993H21.8739C22.3205 21.9928 22.7487 21.8153 23.0644 21.4995C23.3802 21.1838 23.5577 20.7556 23.5579 20.309V14.903C23.5579 14.761 23.5018 14.6248 23.4018 14.524C23.3017 14.4232 23.1659 14.3661 23.0239 14.365ZM18.7799 14.277C18.7799 14.0183 18.8827 13.7702 19.0656 13.5872C19.2486 13.4043 19.4967 13.3015 19.7554 13.3015C20.0142 13.3015 20.2623 13.4043 20.4452 13.5872C20.6282 13.7702 20.7309 14.0183 20.7309 14.277V14.365H18.7799V14.277ZM22.4859 20.309C22.4857 20.4702 22.4215 20.6247 22.3076 20.7387C22.1936 20.8526 22.0391 20.9168 21.8779 20.917H17.6389C17.4778 20.9168 17.3233 20.8526 17.2093 20.7387C17.0953 20.6247 17.0312 20.4702 17.0309 20.309V15.441H17.6999V16.383C17.6999 16.5257 17.7566 16.6626 17.8575 16.7635C17.9584 16.8643 18.0952 16.921 18.2379 16.921C18.3806 16.921 18.5175 16.8643 18.6183 16.7635C18.7192 16.6626 18.7759 16.5257 18.7759 16.383V15.441H20.7269V16.383C20.7269 16.5257 20.7836 16.6626 20.8845 16.7635C20.9854 16.8643 21.1223 16.921 21.2649 16.921C21.4076 16.921 21.5445 16.8643 21.6454 16.7635C21.7462 16.6626 21.8029 16.5257 21.8029 16.383V15.441H22.4829L22.4859 20.309Z" fill="white"/>
</svg>
