<svg width="217" height="54" viewBox="0 0 217 54" fill="none" xmlns="http://www.w3.org/2000/svg">
<path d="M6.82892 34.4833C7.11706 34.9412 7.43402 35.4277 7.8086 35.8856C5.7916 35.0271 4.52378 33.6534 3.77461 32.1367C3.11188 30.7918 2.85255 29.3037 2.82374 27.9301C2.79492 26.9857 2.88137 26.07 3.02544 25.2973C2.70848 25.7552 2.42034 26.2131 2.16101 26.6709C3.91868 23.4086 6.62722 20.7186 9.94085 18.973C7.14587 21.8919 5.27295 25.0398 5.12888 28.3307C5.01362 30.3339 5.53228 32.3943 6.82892 34.4833Z" fill="url(#paint0_radial)"/>
<path d="M29.6498 27.93C29.5057 30.5628 28.1227 32.6518 26.7396 34.054C25.9616 34.8553 25.1836 35.4277 24.6361 35.7424C26.4514 32.4515 26.8548 29.8187 26.4226 27.7011C26.1057 26.0413 25.27 24.6963 24.2327 23.6375C23.7429 23.151 23.2242 22.7218 22.7056 22.3211C22.6479 22.2925 22.6191 22.2639 22.5903 22.2353C22.6191 22.2925 22.6191 22.3497 22.6479 22.407C23.9158 26.2416 22.9649 28.4165 21.3513 29.1892C21.1208 29.3036 20.8615 29.3895 20.6021 29.4181C20.2275 29.4753 19.853 29.504 19.4496 29.4467C16.9427 29.0747 16.4817 24.2098 20.5157 20.2035C21.236 19.4881 22.0428 18.6009 22.792 17.628C22.8785 17.5421 22.9361 17.4276 23.0225 17.3418C23.3683 17.4276 23.7141 17.5135 24.0598 17.628C24.2615 17.6852 24.4632 17.7424 24.6361 17.7997C25.1548 17.9714 25.6446 18.1717 26.1633 18.372C27.0565 18.7726 27.921 19.2305 28.7566 19.7456C28.6125 21.2051 28.7566 22.9793 29.3328 25.1256C29.621 26.1272 29.7074 27.0715 29.6498 27.93Z" fill="url(#paint1_radial)"/>
<path d="M6.82903 34.4833C7.11717 34.9412 7.43413 35.4277 7.80872 35.8855C4.03405 34.3116 2.88148 30.8776 2.82385 27.9301C3.02555 27.5008 3.22725 27.1002 3.42895 26.6995C3.68828 26.2417 3.97642 25.7838 4.29338 25.3259C3.83235 27.9301 4.00524 31.965 6.82903 34.4833Z" fill="#BC1C24"/>
<path d="M21.7835 20.2321C17.8072 24.1812 18.2106 28.9889 20.6021 29.4753C20.2275 29.5326 19.853 29.5612 19.4496 29.504C16.9427 29.1319 16.4817 24.2671 20.5157 20.2607C21.3225 19.4595 22.1869 18.4865 23.0225 17.3704C23.3683 17.4563 23.7141 17.5421 24.0598 17.6566C23.3107 18.6296 22.5039 19.4881 21.7835 20.2321Z" fill="#BC1C24"/>
<path d="M26.7396 34.0541C25.9616 34.8553 25.1836 35.4277 24.6361 35.7425C27.8922 29.876 26.5667 26.07 24.2327 23.6661C24.1175 23.2369 24.0022 22.7504 23.8293 22.2639C26.7684 24.2957 29.4193 27.9301 26.7396 34.0541Z" fill="#BC1C24"/>
<path d="M37.4297 35.4277C37.4297 35.7997 37.4297 36.1431 37.4009 36.5151C36.8246 46.2735 28.699 54.0286 18.7293 54.0286C15.819 54.0286 13.0528 53.3704 10.6036 52.1685C5.90692 49.9078 2.30514 45.787 0.777984 40.779C0.288142 39.0906 0 37.2878 0 35.4277C0 32.2798 0.806799 29.3037 2.18988 26.6709C2.44921 26.213 2.73735 25.7552 3.05431 25.2973C2.44921 28.4738 2.85261 33.7965 7.83747 35.8855C3.05431 29.8188 5.04249 24.0095 9.96972 19.0016C10.9206 18.0286 11.9867 17.0843 13.1105 16.1685C20.17 10.5596 23.4836 6.89666 21.1785 0C28.8142 6.12401 26.365 12.849 23.0226 17.3418C22.187 18.4579 21.3225 19.4308 20.5157 20.2321C16.4817 24.2385 16.9428 29.132 19.4496 29.4754C21.9564 29.8474 24.4345 27.6439 22.5615 22.2639C25.7599 24.4674 28.6125 28.5882 24.6362 35.7425C26.4803 34.6264 30.86 30.7917 29.3329 25.1256C28.7566 22.9793 28.6125 21.2051 28.7566 19.7456C32.3008 21.9777 35.0093 25.3831 36.3924 29.3895C37.0551 31.3068 37.4297 33.31 37.4297 35.4277Z" fill="url(#paint2_radial)"/>
<path d="M36.4212 29.4181C35.0381 25.4118 32.3007 22.0064 28.7854 19.7742C29.2752 14.6804 33.1652 13.5358 33.1652 13.5358C29.0159 19.1733 34.2889 22.6359 36.4212 29.4181Z" fill="#FDC546"/>
<path d="M12.736 37.9746C12.736 38.5469 12.2749 39.2337 11.641 39.434C10.6037 39.9205 9.7969 40.407 9.3935 42.2671C9.3935 42.2957 9.3935 42.3243 9.36468 42.3529C9.22061 43.0684 9.13417 43.9841 9.13417 45.1574C9.10536 47.1606 8.90366 48.5628 8.67314 49.5358L3.45776 43.7552C4.5527 43.0397 5.61883 42.5533 6.28156 42.2385C6.68496 42.0382 7.08836 41.7806 7.43413 41.4658C8.47144 40.5215 9.1918 39.0906 9.1918 37.9173C9.1918 37.7456 9.16298 37.6025 9.13417 37.4308C9.10536 37.2878 9.07654 37.1447 9.10536 37.0016C9.10536 35.6566 10.8918 35.399 11.2088 37.0302C12.3326 36.8871 12.736 37.4022 12.736 37.9746Z" fill="#FDC546"/>
<path d="M12.736 37.9746C12.736 38.5469 12.2749 39.2337 11.641 39.434C10.6037 39.9205 9.7969 40.407 9.3935 42.2671C9.3935 42.2957 9.3935 42.3243 9.36468 42.3529C9.22061 43.0684 9.13417 43.9841 9.13417 45.1574C9.10536 47.1606 8.90366 48.5628 8.67314 49.5358C6.54089 48.0191 4.7544 46.0445 3.45776 43.7552C4.5527 43.0397 5.61883 42.5533 6.28156 42.2385C6.68496 42.0382 7.08836 41.7806 7.43413 41.4658C8.47144 40.5215 9.1918 39.0906 9.1918 37.9173C9.1918 37.7456 9.16298 37.6025 9.13417 37.4308C9.10536 37.2878 9.07654 37.1447 9.10536 37.0016C9.10536 35.6566 10.8918 35.399 11.2088 37.0302C12.3326 36.8871 12.736 37.4022 12.736 37.9746Z" fill="white" stroke="white" stroke-width="0.5" stroke-miterlimit="10"/>
<path d="M36.0178 36.4865C35.4703 45.5008 27.9498 52.655 18.7004 52.655C15.9919 52.655 13.4274 52.054 11.1511 50.938C10.9782 50.8521 10.8341 50.7663 10.6613 50.7091C11.1223 48.6773 12.9088 47.132 15.0986 47.0175C16.6258 46.9316 18.0377 47.5612 18.9598 48.62C19.7377 47.2464 21.2073 46.2734 22.9073 46.1876C23.3107 46.159 23.6853 46.1876 24.0599 46.2734C24.8379 44.8712 26.3074 43.8982 28.0362 43.8124C28.5261 43.7838 29.0159 43.841 29.4769 43.9555C30.082 43.6407 30.7448 43.4404 31.4651 43.4118C31.7245 43.3831 32.0126 43.4118 32.2719 43.4404C31.9838 42.868 31.7821 42.2099 31.7533 41.523C31.638 38.9475 33.5109 36.7726 36.0178 36.4865Z" fill="white"/>
<path d="M16.8275 51.9396C17.1776 51.9396 17.4614 51.6577 17.4614 51.31C17.4614 50.9623 17.1776 50.6805 16.8275 50.6805C16.4774 50.6805 16.1936 50.9623 16.1936 51.31C16.1936 51.6577 16.4774 51.9396 16.8275 51.9396Z" fill="#FDC546"/>
<path d="M33.655 40.0922C33.9096 40.0922 34.116 39.8872 34.116 39.6343C34.116 39.3815 33.9096 39.1765 33.655 39.1765C33.4004 39.1765 33.194 39.3815 33.194 39.6343C33.194 39.8872 33.4004 40.0922 33.655 40.0922Z" fill="#FDC546"/>
<path d="M22.5616 51.1383C22.7366 51.1383 22.8785 50.9974 22.8785 50.8235C22.8785 50.6497 22.7366 50.5088 22.5616 50.5088C22.3865 50.5088 22.2446 50.6497 22.2446 50.8235C22.2446 50.9974 22.3865 51.1383 22.5616 51.1383Z" fill="#FDC546"/>
<path d="M30.3414 44.8998C30.5164 44.8998 30.6583 44.7589 30.6583 44.585C30.6583 44.4112 30.5164 44.2703 30.3414 44.2703C30.1663 44.2703 30.0244 44.4112 30.0244 44.585C30.0244 44.7589 30.1663 44.8998 30.3414 44.8998Z" fill="#FDC546"/>
<path d="M20.7175 48.5056C20.8925 48.5056 21.0344 48.3646 21.0344 48.1908C21.0344 48.0169 20.8925 47.876 20.7175 47.876C20.5424 47.876 20.4005 48.0169 20.4005 48.1908C20.4005 48.3646 20.5424 48.5056 20.7175 48.5056Z" fill="#FDC546"/>
<path d="M26.8836 49.5072C27.0587 49.5072 27.2006 49.3662 27.2006 49.1924C27.2006 49.0185 27.0587 48.8776 26.8836 48.8776C26.7086 48.8776 26.5667 49.0185 26.5667 49.1924C26.5667 49.3662 26.7086 49.5072 26.8836 49.5072Z" fill="#FDC546"/>
<path d="M27.3735 46.5596C27.5485 46.5596 27.6904 46.4187 27.6904 46.2448C27.6904 46.071 27.5485 45.9301 27.3735 45.9301C27.1984 45.9301 27.0565 46.071 27.0565 46.2448C27.0565 46.4187 27.1984 46.5596 27.3735 46.5596Z" fill="#FDC546"/>
<path d="M13.1681 50.5946C13.2954 50.5946 13.3987 50.4921 13.3987 50.3657C13.3987 50.2392 13.2954 50.1367 13.1681 50.1367C13.0408 50.1367 12.9376 50.2392 12.9376 50.3657C12.9376 50.4921 13.0408 50.5946 13.1681 50.5946Z" fill="#FDC546"/>
<path d="M19.8818 34.5691C19.1038 35.2273 18.5275 35.8283 18.6428 37.5167C18.6428 37.5453 18.6428 37.5453 18.6428 37.5739C18.7004 38.2035 18.8445 39.0048 19.1038 40.035C19.1326 40.0922 19.1326 40.1494 19.1326 40.2067C18.8157 40.4356 18.5275 40.779 18.3547 41.151C18.2682 41.3513 18.1818 41.5803 18.153 41.8092C18.153 41.8664 18.1241 41.9237 18.0953 41.9809C17.836 42.5819 17.0004 43.24 16.1648 43.5262C16.0207 43.5835 15.8766 43.6121 15.7037 43.6407C15.5597 43.6693 15.4444 43.6693 15.3292 43.6693C15.2427 43.6693 15.1563 43.6693 15.0698 43.6693C14.3495 43.6979 13.2833 43.7265 12.102 43.9555C12.0443 43.9555 11.9867 43.9841 11.9291 43.9841C12.4477 41.0938 14.9546 39.0906 15.9919 38.1749C16.28 37.9173 16.5682 37.6025 16.7699 37.2305C17.4326 36.1717 17.7207 34.7981 17.4326 33.7679C17.375 33.6248 17.3462 33.4817 17.2597 33.3672C17.2021 33.2528 17.1445 33.1097 17.1156 32.9952C16.7987 31.8505 18.2682 31.221 18.9309 32.5087C19.853 32.1653 20.3428 32.4801 20.4581 32.9666C20.631 33.5675 20.4005 34.2544 19.8818 34.5691Z" fill="white"/>
<path d="M22.1582 43.7552C21.9565 44.2416 21.3514 44.6137 20.7463 44.5564C19.7378 44.585 18.9022 44.6995 17.9225 46.0731C17.1445 45.7297 16.2801 45.5294 15.3868 45.5294C15.2716 45.5294 15.1563 45.5294 15.0411 45.5294C13.1681 45.6153 11.4969 46.5596 10.402 47.9618C10.4884 47.275 10.546 46.531 10.5749 45.7297C12.419 44.9857 14.3783 44.9857 15.4157 44.9571C15.8191 44.9285 16.2225 44.8712 16.6259 44.7281C17.8072 44.3275 18.9022 43.4118 19.3344 42.4674C19.392 42.3243 19.4208 42.1812 19.4496 42.0668C19.4785 41.9237 19.5073 41.8092 19.5649 41.6947C20.0547 40.6073 21.5819 41.0079 21.2938 42.4388C22.2158 42.7536 22.3887 43.3259 22.1582 43.7552Z" fill="white"/>
<path d="M12.736 37.9746C12.736 38.5469 12.2749 39.2337 11.641 39.434C10.6037 39.9205 9.7969 40.407 9.3935 42.2671C9.3935 42.2957 9.3935 42.3243 9.36468 42.3529C9.22061 43.0684 9.13417 43.9841 9.13417 45.1574C9.10536 47.1606 8.90366 48.5628 8.67314 49.5358C6.54089 48.0191 4.7544 46.0445 3.45776 43.7552C4.5527 43.0397 5.61883 42.5533 6.28156 42.2385C6.68496 42.0382 7.08836 41.7806 7.43413 41.4658C8.47144 40.5215 9.1918 39.0906 9.1918 37.9173C9.1918 37.7456 9.16298 37.6025 9.13417 37.4308C9.10536 37.2878 9.07654 37.1447 9.10536 37.0016C9.10536 35.6566 10.8918 35.399 11.2088 37.0302C12.3326 36.8871 12.736 37.4022 12.736 37.9746Z" fill="white" stroke="white" stroke-width="0.5" stroke-miterlimit="10"/>
<path d="M58.3358 35.9491H55.051V40.2989C55.051 41.0143 54.4747 41.5867 53.7544 41.5867H50.2966C49.5763 41.5867 49 41.0143 49 40.2989V21.6693C49 20.9539 49.5763 20.3816 50.2966 20.3816H58.768C64.5885 20.3816 68.2479 23.3863 68.2479 28.2226C68.2479 31.3418 66.7208 33.6312 64.0699 34.9189L67.297 39.5835C67.8733 40.442 67.2682 41.5867 66.2309 41.5867H62.9173C62.4851 41.5867 62.0817 41.3863 61.8512 41.0143L58.3358 35.9491ZM58.3934 25.1033H55.051V31.3132H58.3934C60.9003 31.3132 62.1393 30.1685 62.1393 28.2226C62.1393 26.248 60.9003 25.1033 58.3934 25.1033Z" fill="black"/>
<path d="M70.0632 20.2957C70.0632 18.5787 71.4751 17.2337 73.6074 17.2337C75.7396 17.2337 77.1515 18.4642 77.1515 20.2099C77.1515 22.0127 75.7396 23.3577 73.6074 23.3577C71.4751 23.3577 70.0632 22.0127 70.0632 20.2957ZM71.9938 25.1606H75.1922C75.9125 25.1606 76.4888 25.7329 76.4888 26.4483V40.2989C76.4888 41.0143 75.9125 41.5866 75.1922 41.5866H71.9938C71.2734 41.5866 70.6971 41.0143 70.6971 40.2989V26.4483C70.726 25.7329 71.3022 25.1606 71.9938 25.1606Z" fill="black"/>
<path d="M78.6499 33.345C78.6499 28.4229 82.5686 24.903 88.1298 24.903C91.2705 24.903 93.7774 26.0763 95.1893 28.1081C95.6215 28.7663 95.4198 29.6248 94.7282 29.9968L92.3943 31.1701C91.8468 31.4563 91.2129 31.2846 90.8383 30.7981C90.0891 29.8823 89.1671 29.4531 88.101 29.4531C86.084 29.4531 84.4992 30.8553 84.4992 33.3164C84.4992 35.8633 86.084 37.2655 88.101 37.2655C89.1671 37.2655 90.0891 36.8649 90.8383 35.9205C91.2129 35.4626 91.8468 35.2909 92.3943 35.5485L94.7282 36.7218C95.4198 37.0652 95.6503 37.9523 95.1893 38.6105C93.7774 40.6709 91.2705 41.8156 88.1298 41.8156C82.5686 41.8442 78.6499 38.3529 78.6499 33.345Z" fill="black"/>
<path d="M114.091 34.8331H102.076C102.566 36.4928 104.006 37.4658 106.139 37.4658C107.349 37.4658 108.271 37.2083 109.107 36.6645C109.625 36.3498 110.317 36.407 110.72 36.8649L112.074 38.2671C112.593 38.8108 112.564 39.6979 111.959 40.1558C110.461 41.2719 108.473 41.8728 105.966 41.8728C100.088 41.8728 96.2842 38.2671 96.2842 33.3736C96.2842 28.4515 100.145 24.9316 105.361 24.9316C110.23 24.9316 114.207 28.0223 114.207 33.4308C114.178 33.8315 114.12 34.3752 114.091 34.8331ZM101.989 31.7997H108.761C108.444 30.0827 107.176 28.9952 105.389 28.9952C103.574 28.9952 102.335 30.0827 101.989 31.7997Z" fill="black"/>
<path d="M156.16 30.5405H158.897C159.618 30.5405 160.194 31.1129 160.194 31.8283V39.3259C157.716 41.0715 154.345 42.0159 151.233 42.0159C144.433 42.0159 139.477 37.4372 139.477 30.9984C139.477 24.5596 144.433 19.9809 151.377 19.9809C154.806 19.9809 157.658 20.9825 159.733 22.8426C160.309 23.3577 160.281 24.2448 159.733 24.7313L157.774 26.5056C157.313 26.9348 156.564 26.9634 156.103 26.5628C154.835 25.4754 153.394 24.9603 151.694 24.9603C147.977 24.9603 145.528 27.4213 145.585 31.1987C145.672 34.5183 148.294 37.0938 151.665 37.0652C152.789 37.0652 153.826 36.8363 154.892 36.3784V31.8569C154.863 31.1129 155.44 30.5405 156.16 30.5405Z" fill="black"/>
<path d="M174.255 26.2766V28.7091C174.255 29.4245 173.679 29.9682 172.959 29.9682C170.625 29.9682 168.982 31.1415 168.982 34.0318V41.5866H163.191V26.4483C163.191 25.7329 163.767 25.1606 164.487 25.1606H167.426C168.147 25.1606 168.723 25.7329 168.723 26.4483V27.1351C169.674 25.9618 171.057 25.2464 172.815 24.9889C173.564 24.8744 174.255 25.504 174.255 26.2766Z" fill="black"/>
<path d="M175.408 20.2957C175.408 18.5787 176.82 17.2337 178.952 17.2337C181.084 17.2337 182.496 18.4642 182.496 20.2099C182.496 22.0127 181.084 23.3577 178.952 23.3577C176.82 23.3577 175.408 22.0127 175.408 20.2957ZM177.339 25.1606H180.537C181.257 25.1606 181.834 25.7329 181.834 26.4483V40.2989C181.834 41.0143 181.257 41.5866 180.537 41.5866H177.339C176.618 41.5866 176.042 41.0143 176.042 40.2989V26.4483C176.042 25.7329 176.618 25.1606 177.339 25.1606Z" fill="black"/>
<path d="M186.3 19.1224H189.498C190.219 19.1224 190.795 19.6947 190.795 20.4102V40.2989C190.795 41.0143 190.219 41.5866 189.498 41.5866H186.3C185.579 41.5866 185.003 41.0143 185.003 40.2989V20.4102C185.003 19.6947 185.579 19.1224 186.3 19.1224Z" fill="black"/>
<path d="M195.261 19.1224H198.459C199.18 19.1224 199.756 19.6947 199.756 20.4102V40.2989C199.756 41.0143 199.18 41.5866 198.459 41.5866H195.261C194.541 41.5866 193.964 41.0143 193.964 40.2989V20.4102C193.964 19.6947 194.541 19.1224 195.261 19.1224Z" fill="black"/>
<path d="M202.119 39.0397L202.81 37.4658C203.098 36.8076 203.848 36.5215 204.51 36.8076C205.893 37.38 207.565 37.7234 209.121 37.7234C211.08 37.7234 211.714 37.2941 211.714 36.6073C211.714 34.4038 201.946 36.9221 201.946 30.3402C201.946 27.2496 204.799 24.903 209.985 24.903C211.772 24.903 213.673 25.1892 215.229 25.7329C215.95 25.9905 216.295 26.7917 215.978 27.4785L215.345 28.9952C215.056 29.6248 214.336 29.9396 213.702 29.682C212.434 29.1669 211.195 28.9952 210.072 28.9952C208.112 28.9952 207.421 29.5389 207.421 30.1399C207.421 32.4006 217.16 29.9682 217.16 36.4642C217.16 39.4976 214.365 41.8442 208.977 41.8442C206.758 41.8442 204.51 41.4149 202.839 40.7281C202.148 40.4706 201.831 39.6979 202.119 39.0397Z" fill="black"/>
<path d="M131.063 19.8665V32.4865L122.678 22.4134C122.044 21.6407 121.093 21.2114 120.085 21.2114C118.212 21.2114 116.714 22.7281 116.714 24.5596V53.2909H116.829L122.62 47.539V31.1129L131.034 41.186C131.668 41.9587 132.619 42.3879 133.627 42.3879C135.5 42.3879 136.999 40.8712 136.999 39.0397V14L131.063 19.8665Z" fill="#E94542"/>
<path d="M64.3292 48.8267V50.4293H66.8936V51.2592H64.3292V53.2623H63.3495V47.9968H67.2106V48.8267H64.3292Z" fill="#504F4F"/>
<path d="M77.6701 53.291L76.5752 51.7456C76.5175 51.7456 76.4311 51.7456 76.3735 51.7456H75.1633V53.291H74.1836V48.0255H76.3735C77.7566 48.0255 78.621 48.7409 78.621 49.8855C78.621 50.6868 78.2176 51.2592 77.4972 51.5453L78.7074 53.2623H77.6701V53.291ZM76.3447 48.8553H75.1921V50.9444H76.3447C77.2091 50.9444 77.6413 50.5437 77.6413 49.8855C77.6413 49.2274 77.2091 48.8553 76.3447 48.8553Z" fill="#504F4F"/>
<path d="M89.7721 52.4611V53.291H85.7958V48.0255H89.6569V48.8553H86.7755V50.2289H89.3399V51.0302H86.7755V52.4897H89.7721V52.4611Z" fill="#504F4F"/>
<path d="M96.4858 52.7186L96.8316 51.946C97.2638 52.2894 97.9265 52.5183 98.5893 52.5183C99.4249 52.5183 99.7707 52.2321 99.7707 51.8315C99.7707 50.6868 96.6299 51.4309 96.6299 49.4849C96.6299 48.6264 97.3215 47.911 98.7622 47.911C99.3961 47.911 100.059 48.0827 100.52 48.3688L100.203 49.1415C99.713 48.8553 99.1944 48.7409 98.7333 48.7409C97.9265 48.7409 97.5808 49.0557 97.5808 49.4563C97.5808 50.5723 100.722 49.8569 100.722 51.7743C100.722 52.6041 100.03 53.3482 98.5893 53.3482C97.7248 53.3482 96.9181 53.0906 96.4858 52.7186Z" fill="#504F4F"/>
<path d="M112.449 48.0255V53.291H111.469V51.0302H108.732V53.291H107.752V48.0255H108.732V50.2003H111.469V48.0255H112.449Z" fill="#504F4F"/>
<path d="M142.675 48.8553H140.917V48.0255H145.412V48.8553H143.655V53.291H142.675V48.8553Z" fill="#504F4F"/>
<path d="M155.382 52.0604H152.731L152.213 53.291H151.204L153.596 48.0255H154.575L156.967 53.291H155.93L155.382 52.0604ZM155.065 51.2878L154.057 48.9984L153.077 51.2878H155.065Z" fill="#504F4F"/>
<path d="M163.22 52.7186L163.565 51.946C163.998 52.2894 164.66 52.5183 165.323 52.5183C166.159 52.5183 166.504 52.2321 166.504 51.8315C166.504 50.6868 163.364 51.4309 163.364 49.4849C163.364 48.6264 164.055 47.911 165.496 47.911C166.13 47.911 166.793 48.0827 167.254 48.3688L166.937 49.1415C166.447 48.8553 165.928 48.7409 165.467 48.7409C164.66 48.7409 164.315 49.0557 164.315 49.4563C164.315 50.5723 167.455 49.8569 167.455 51.7743C167.455 52.6041 166.764 53.3482 165.323 53.3482C164.487 53.3482 163.652 53.0906 163.22 52.7186Z" fill="#504F4F"/>
<path d="M175.466 48.8553H173.708V48.0255H178.203V48.8553H176.445V53.291H175.466V48.8553Z" fill="#504F4F"/>
<path d="M187.222 51.4309V53.291H186.242V51.4595L184.167 48.0255H185.234L186.79 50.601L188.346 48.0255H189.325L187.222 51.4309Z" fill="#504F4F"/>
<defs>
<radialGradient id="paint0_radial" cx="0" cy="0" r="1" gradientUnits="userSpaceOnUse" gradientTransform="translate(15.0954 19.4479) scale(33.7158 33.4848)">
<stop stop-color="#E38D2E"/>
<stop offset="0.4746" stop-color="#CD2926"/>
<stop offset="1" stop-color="#AB2F22"/>
</radialGradient>
<radialGradient id="paint1_radial" cx="0" cy="0" r="1" gradientUnits="userSpaceOnUse" gradientTransform="translate(15.0954 19.4478) scale(33.7158 33.4848)">
<stop stop-color="#E38D2E"/>
<stop offset="0.4746" stop-color="#CD2926"/>
<stop offset="1" stop-color="#AB2F22"/>
</radialGradient>
<radialGradient id="paint2_radial" cx="0" cy="0" r="1" gradientUnits="userSpaceOnUse" gradientTransform="translate(4.23978 23.6209) scale(38.1536 37.8923)">
<stop stop-color="#FFE6B4"/>
<stop offset="0.2944" stop-color="#FDC546"/>
<stop offset="0.703" stop-color="#F69F2B"/>
<stop offset="1" stop-color="#EF7927"/>
</radialGradient>
</defs>
</svg>
