<svg width="38" height="55" viewBox="0 0 38 55" fill="none" xmlns="http://www.w3.org/2000/svg">
<path d="M6.82898 34.4834C7.11712 34.9412 7.43408 35.4277 7.80866 35.8856C5.79167 35.0271 4.52384 33.6535 3.77467 32.1368C3.11194 30.7918 2.85261 29.3037 2.8238 27.9301C2.79499 26.9857 2.88143 26.07 3.0255 25.2973C2.70854 25.7552 2.4204 26.2131 2.16107 26.671C3.91874 23.4086 6.62728 20.7187 9.94092 18.973C7.14593 21.8919 5.27301 25.0398 5.12894 28.3307C5.01368 30.3339 5.53234 32.3943 6.82898 34.4834Z" fill="url(#paint0_radial)"/>
<path d="M29.6499 27.93C29.5058 30.5628 28.1227 32.6518 26.7396 34.054C25.9616 34.8553 25.1836 35.4276 24.6362 35.7424C26.4515 32.4515 26.8549 29.8187 26.4227 27.7011C26.1057 26.0413 25.2701 24.6963 24.2328 23.6375C23.7429 23.151 23.2243 22.7218 22.7056 22.3211C22.648 22.2925 22.6192 22.2639 22.5904 22.2353C22.6192 22.2925 22.6192 22.3497 22.648 22.407C23.9158 26.2416 22.9649 28.4165 21.3513 29.1892C21.1208 29.3036 20.8615 29.3895 20.6022 29.4181C20.2276 29.4753 19.853 29.504 19.4496 29.4467C16.9428 29.0747 16.4817 24.2098 20.5157 20.2035C21.2361 19.4881 22.0429 18.6009 22.7921 17.628C22.8785 17.5421 22.9361 17.4276 23.0226 17.3418C23.3683 17.4276 23.7141 17.5135 24.0599 17.628C24.2616 17.6852 24.4633 17.7424 24.6362 17.7997C25.1548 17.9714 25.6447 18.1717 26.1633 18.372C27.0566 18.7726 27.921 19.2305 28.7566 19.7456C28.6125 21.2051 28.7566 22.9793 29.3329 25.1256C29.621 26.1272 29.7075 27.0715 29.6499 27.93Z" fill="url(#paint1_radial)"/>
<path d="M6.82897 34.4833C7.11711 34.9412 7.43407 35.4277 7.80866 35.8855C4.03399 34.3116 2.88142 30.8776 2.82379 27.9301C3.02549 27.5008 3.22719 27.1002 3.42889 26.6995C3.68822 26.2417 3.97636 25.7838 4.29332 25.3259C3.83229 27.9301 4.00518 31.965 6.82897 34.4833Z" fill="#BC1C24"/>
<path d="M21.7836 20.2322C17.8072 24.1813 18.2106 28.9889 20.6022 29.4754C20.2276 29.5326 19.853 29.5613 19.4496 29.504C16.9428 29.132 16.4817 24.2671 20.5157 20.2608C21.3225 19.4595 22.187 18.4865 23.0226 17.3705C23.3683 17.4563 23.7141 17.5422 24.0599 17.6567C23.3107 18.6296 22.5039 19.4881 21.7836 20.2322Z" fill="#BC1C24"/>
<path d="M26.7396 34.0541C25.9616 34.8553 25.1836 35.4277 24.6362 35.7425C27.8922 29.876 26.5667 26.07 24.2328 23.6661C24.1175 23.2369 24.0023 22.7504 23.8294 22.2639C26.7684 24.2957 29.4193 27.9301 26.7396 34.0541Z" fill="#BC1C24"/>
<path d="M37.4297 35.4277C37.4297 35.7997 37.4297 36.1431 37.4009 36.5151C36.8246 46.2735 28.699 54.0286 18.7293 54.0286C15.819 54.0286 13.0528 53.3704 10.6036 52.1685C5.90692 49.9078 2.30514 45.787 0.777984 40.779C0.288142 39.0906 0 37.2878 0 35.4277C0 32.2798 0.806799 29.3037 2.18988 26.6709C2.44921 26.213 2.73735 25.7552 3.05431 25.2973C2.44921 28.4738 2.85261 33.7965 7.83747 35.8855C3.05431 29.8188 5.04249 24.0095 9.96972 19.0016C10.9206 18.0286 11.9867 17.0843 13.1105 16.1685C20.17 10.5596 23.4836 6.89666 21.1785 0C28.8142 6.12401 26.365 12.849 23.0226 17.3418C22.187 18.4579 21.3225 19.4308 20.5157 20.2321C16.4817 24.2385 16.9428 29.132 19.4496 29.4754C21.9564 29.8474 24.4345 27.6439 22.5615 22.2639C25.7599 24.4674 28.6125 28.5882 24.6362 35.7425C26.4803 34.6264 30.86 30.7917 29.3329 25.1256C28.7566 22.9793 28.6125 21.2051 28.7566 19.7456C32.3008 21.9777 35.0093 25.3831 36.3924 29.3895C37.0551 31.3068 37.4297 33.31 37.4297 35.4277Z" fill="url(#paint2_radial)"/>
<path d="M36.4212 29.4181C35.0381 25.4118 32.3008 22.0064 28.7854 19.7742C29.2753 14.6804 33.1652 13.5358 33.1652 13.5358C29.0159 19.1733 34.289 22.6359 36.4212 29.4181Z" fill="#FDC546"/>
<path d="M12.7359 37.9746C12.7359 38.5469 12.2749 39.2337 11.6409 39.434C10.6036 39.9205 9.79684 40.407 9.39344 42.2671C9.39344 42.2957 9.39344 42.3243 9.36462 42.3529C9.22055 43.0684 9.13411 43.9841 9.13411 45.1574C9.10529 47.1606 8.90359 48.5628 8.67308 49.5358L3.4577 43.7552C4.55264 43.0397 5.61877 42.5533 6.2815 42.2385C6.6849 42.0382 7.0883 41.7806 7.43407 41.4658C8.47138 40.5215 9.19174 39.0906 9.19174 37.9173C9.19174 37.7456 9.16292 37.6025 9.13411 37.4308C9.10529 37.2878 9.07648 37.1447 9.10529 37.0016C9.10529 35.6566 10.8918 35.399 11.2087 37.0302C12.3325 36.8871 12.7359 37.4022 12.7359 37.9746Z" fill="#FDC546"/>
<path d="M12.7359 37.9746C12.7359 38.5469 12.2749 39.2337 11.6409 39.434C10.6036 39.9205 9.79684 40.407 9.39344 42.2671C9.39344 42.2957 9.39344 42.3243 9.36462 42.3529C9.22055 43.0684 9.13411 43.9841 9.13411 45.1574C9.10529 47.1606 8.90359 48.5628 8.67308 49.5358C6.54083 48.0191 4.75434 46.0445 3.4577 43.7552C4.55264 43.0397 5.61877 42.5533 6.2815 42.2385C6.6849 42.0382 7.0883 41.7806 7.43407 41.4658C8.47138 40.5215 9.19174 39.0906 9.19174 37.9173C9.19174 37.7456 9.16292 37.6025 9.13411 37.4308C9.10529 37.2878 9.07648 37.1447 9.10529 37.0016C9.10529 35.6566 10.8918 35.399 11.2087 37.0302C12.3325 36.8871 12.7359 37.4022 12.7359 37.9746Z" fill="white" stroke="white" stroke-width="0.5" stroke-miterlimit="10"/>
<path d="M36.0178 36.4865C35.4703 45.5008 27.9498 52.655 18.7004 52.655C15.9919 52.655 13.4274 52.054 11.1511 50.938C10.9782 50.8521 10.8342 50.7663 10.6613 50.709C11.1223 48.6772 12.9088 47.1319 15.0987 47.0175C16.6258 46.9316 18.0377 47.5612 18.9598 48.62C19.7378 47.2464 21.2073 46.2734 22.9073 46.1876C23.3107 46.1589 23.6853 46.1876 24.0599 46.2734C24.8379 44.8712 26.3074 43.8982 28.0363 43.8124C28.5261 43.7837 29.0159 43.841 29.477 43.9555C30.0821 43.6407 30.7448 43.4403 31.4651 43.4117C31.7245 43.3831 32.0126 43.4117 32.2719 43.4403C31.9838 42.868 31.7821 42.2098 31.7533 41.523C31.638 38.9475 33.511 36.7726 36.0178 36.4865Z" fill="white"/>
<path d="M16.8275 51.9396C17.1776 51.9396 17.4614 51.6577 17.4614 51.31C17.4614 50.9623 17.1776 50.6804 16.8275 50.6804C16.4774 50.6804 16.1936 50.9623 16.1936 51.31C16.1936 51.6577 16.4774 51.9396 16.8275 51.9396Z" fill="#FDC546"/>
<path d="M33.655 40.0923C33.9096 40.0923 34.1161 39.8873 34.1161 39.6344C34.1161 39.3815 33.9096 39.1765 33.655 39.1765C33.4004 39.1765 33.194 39.3815 33.194 39.6344C33.194 39.8873 33.4004 40.0923 33.655 40.0923Z" fill="#FDC546"/>
<path d="M22.5615 51.1384C22.7366 51.1384 22.8785 50.9974 22.8785 50.8236C22.8785 50.6497 22.7366 50.5088 22.5615 50.5088C22.3865 50.5088 22.2446 50.6497 22.2446 50.8236C22.2446 50.9974 22.3865 51.1384 22.5615 51.1384Z" fill="#FDC546"/>
<path d="M30.3414 44.8998C30.5164 44.8998 30.6584 44.7589 30.6584 44.585C30.6584 44.4112 30.5164 44.2703 30.3414 44.2703C30.1664 44.2703 30.0244 44.4112 30.0244 44.585C30.0244 44.7589 30.1664 44.8998 30.3414 44.8998Z" fill="#FDC546"/>
<path d="M20.7175 48.5055C20.8925 48.5055 21.0344 48.3646 21.0344 48.1908C21.0344 48.0169 20.8925 47.876 20.7175 47.876C20.5424 47.876 20.4005 48.0169 20.4005 48.1908C20.4005 48.3646 20.5424 48.5055 20.7175 48.5055Z" fill="#FDC546"/>
<path d="M26.8837 49.5071C27.0587 49.5071 27.2006 49.3662 27.2006 49.1923C27.2006 49.0185 27.0587 48.8776 26.8837 48.8776C26.7086 48.8776 26.5667 49.0185 26.5667 49.1923C26.5667 49.3662 26.7086 49.5071 26.8837 49.5071Z" fill="#FDC546"/>
<path d="M27.3735 46.5596C27.5486 46.5596 27.6905 46.4187 27.6905 46.2448C27.6905 46.071 27.5486 45.9301 27.3735 45.9301C27.1985 45.9301 27.0566 46.071 27.0566 46.2448C27.0566 46.4187 27.1985 46.5596 27.3735 46.5596Z" fill="#FDC546"/>
<path d="M13.1681 50.5946C13.2954 50.5946 13.3986 50.4921 13.3986 50.3657C13.3986 50.2392 13.2954 50.1367 13.1681 50.1367C13.0408 50.1367 12.9376 50.2392 12.9376 50.3657C12.9376 50.4921 13.0408 50.5946 13.1681 50.5946Z" fill="#FDC546"/>
<path d="M19.8818 34.5691C19.1038 35.2273 18.5276 35.8283 18.6428 37.5166C18.6428 37.5453 18.6428 37.5453 18.6428 37.5739C18.7004 38.2035 18.8445 39.0047 19.1038 40.0349C19.1327 40.0922 19.1327 40.1494 19.1327 40.2066C18.8157 40.4356 18.5276 40.779 18.3547 41.151C18.2682 41.3513 18.1818 41.5802 18.153 41.8092C18.153 41.8664 18.1242 41.9236 18.0953 41.9809C17.836 42.5818 17.0004 43.24 16.1648 43.5262C16.0207 43.5834 15.8766 43.612 15.7038 43.6407C15.5597 43.6693 15.4444 43.6693 15.3292 43.6693C15.2427 43.6693 15.1563 43.6693 15.0698 43.6693C14.3495 43.6979 13.2834 43.7265 12.102 43.9554C12.0443 43.9554 11.9867 43.9841 11.9291 43.9841C12.4477 41.0938 14.9546 39.0906 15.9919 38.1748C16.28 37.9173 16.5682 37.6025 16.7699 37.2305C17.4326 36.1717 17.7208 34.798 17.4326 33.7678C17.375 33.6248 17.3462 33.4817 17.2597 33.3672C17.2021 33.2527 17.1445 33.1097 17.1157 32.9952C16.7987 31.8505 18.2682 31.2209 18.931 32.5087C19.853 32.1653 20.3429 32.4801 20.4581 32.9666C20.631 33.5675 20.4005 34.2543 19.8818 34.5691Z" fill="white"/>
<path d="M22.1581 43.7552C21.9564 44.2417 21.3513 44.6137 20.7462 44.5565C19.7377 44.5851 18.9021 44.6996 17.9224 46.0732C17.1445 45.7298 16.28 45.5295 15.3868 45.5295C15.2715 45.5295 15.1563 45.5295 15.041 45.5295C13.1681 45.6153 11.4969 46.5597 10.4019 47.9619C10.4884 47.2751 10.546 46.5311 10.5748 45.7298C12.4189 44.9857 14.3783 44.9857 15.4156 44.9571C15.819 44.9285 16.2224 44.8713 16.6258 44.7282C17.8072 44.3276 18.9021 43.4118 19.3343 42.4675C19.392 42.3244 19.4208 42.1813 19.4496 42.0668C19.4784 41.9237 19.5072 41.8093 19.5649 41.6948C20.0547 40.6074 21.5819 41.008 21.2937 42.4388C22.2158 42.7536 22.3887 43.326 22.1581 43.7552Z" fill="white"/>
<path d="M12.7359 37.9746C12.7359 38.5469 12.2749 39.2337 11.6409 39.434C10.6036 39.9205 9.79684 40.407 9.39344 42.2671C9.39344 42.2957 9.39344 42.3243 9.36462 42.3529C9.22055 43.0684 9.13411 43.9841 9.13411 45.1574C9.10529 47.1606 8.90359 48.5628 8.67308 49.5358C6.54083 48.0191 4.75434 46.0445 3.4577 43.7552C4.55264 43.0397 5.61877 42.5533 6.2815 42.2385C6.6849 42.0382 7.0883 41.7806 7.43407 41.4658C8.47138 40.5215 9.19174 39.0906 9.19174 37.9173C9.19174 37.7456 9.16292 37.6025 9.13411 37.4308C9.10529 37.2878 9.07648 37.1447 9.10529 37.0016C9.10529 35.6566 10.8918 35.399 11.2087 37.0302C12.3325 36.8871 12.7359 37.4022 12.7359 37.9746Z" fill="white" stroke="white" stroke-width="0.5" stroke-miterlimit="10"/>
<defs>
<radialGradient id="paint0_radial" cx="0" cy="0" r="1" gradientUnits="userSpaceOnUse" gradientTransform="translate(15.0955 19.4479) scale(33.7158 33.4848)">
<stop stop-color="#E38D2E"/>
<stop offset="0.4746" stop-color="#CD2926"/>
<stop offset="1" stop-color="#AB2F22"/>
</radialGradient>
<radialGradient id="paint1_radial" cx="0" cy="0" r="1" gradientUnits="userSpaceOnUse" gradientTransform="translate(15.0955 19.4478) scale(33.7158 33.4848)">
<stop stop-color="#E38D2E"/>
<stop offset="0.4746" stop-color="#CD2926"/>
<stop offset="1" stop-color="#AB2F22"/>
</radialGradient>
<radialGradient id="paint2_radial" cx="0" cy="0" r="1" gradientUnits="userSpaceOnUse" gradientTransform="translate(4.23978 23.6209) scale(38.1536 37.8923)">
<stop stop-color="#FFE6B4"/>
<stop offset="0.2944" stop-color="#FDC546"/>
<stop offset="0.703" stop-color="#F69F2B"/>
<stop offset="1" stop-color="#EF7927"/>
</radialGradient>
</defs>
</svg>
