<svg width="76" height="77" viewBox="0 0 76 77" fill="none" xmlns="http://www.w3.org/2000/svg">
<path d="M38.0001 24.6429H4.45312V73.7759H71.5471V24.6429H38.0001Z" fill="#F8E5CA"/>
<path d="M38 24.6429H71.547V73.7759H38V24.6429Z" fill="#FFD396"/>
<path d="M39 0.236905C38.6897 0.0811244 38.3472 0 38 0C37.6528 0 37.3103 0.0811244 37 0.236905L0 17.9629L7.354 22.4159H68.794L76 17.9629L39 0.236905Z" fill="#FD6328"/>
<path d="M76 17.9629L39 0.236911C38.6895 0.0817202 38.3471 0.00124617 38 0.00191144V22.4159H68.794L76 17.9629Z" fill="#EE3616"/>
<path d="M60.2648 40.2289H35.7728L31.3198 44.6819V66.9479H60.2648C60.5574 66.9482 60.8471 66.8908 61.1174 66.7789C61.3877 66.6671 61.6333 66.5031 61.8401 66.2962C62.047 66.0894 62.211 65.8438 62.3228 65.5735C62.4347 65.3031 62.4921 65.0134 62.4918 64.7209V42.4559C62.4921 42.1634 62.4347 41.8737 62.3228 41.6034C62.211 41.3331 62.047 41.0874 61.8401 40.8806C61.6333 40.6737 61.3877 40.5097 61.1174 40.3979C60.8471 40.2861 60.5574 40.2287 60.2648 40.2289V40.2289Z" fill="#766E6E"/>
<path d="M62.492 64.7209V42.4559C62.4923 42.1635 62.4349 41.8739 62.3231 41.6036C62.2114 41.3334 62.0474 41.0878 61.8407 40.881C61.6339 40.6741 61.3884 40.5101 61.1182 40.3982C60.848 40.2863 60.5584 40.2288 60.266 40.2289H38V66.9479H60.266C60.5584 66.948 60.848 66.8905 61.1182 66.7786C61.3884 66.6667 61.6339 66.5027 61.8407 66.2959C62.0474 66.089 62.2114 65.8435 62.3231 65.5732C62.4349 65.303 62.4923 65.0134 62.492 64.7209V64.7209Z" fill="#5B5555"/>
<path d="M31.3198 58.0409V62.4939H58.0388V58.0409H31.3198Z" fill="#A8EBFA"/>
<path d="M37.9998 44.6819H31.3198V53.5879H58.0388V44.6819H37.9998Z" fill="#A8EBFA"/>
<path d="M38 44.6819H58.039V53.5879H38V44.6819Z" fill="#76E2F8"/>
<path d="M38 58.0409H58.039V62.4939H38V58.0409Z" fill="#76E2F8"/>
<path d="M15.7348 40.2289C15.1442 40.2289 14.5777 40.4636 14.1601 40.8812C13.7424 41.2988 13.5078 41.8653 13.5078 42.4559V53.5889L17.9608 55.8159L13.5078 58.0419V73.7759H35.7738V40.2289H15.7348Z" fill="#766E6E"/>
<path d="M22.4138 55.8149C22.4141 55.5225 22.3567 55.2328 22.2449 54.9626C22.1332 54.6924 21.9692 54.4468 21.7625 54.2399C21.5557 54.0331 21.3102 53.8691 21.0401 53.7572C20.7699 53.6453 20.4803 53.5878 20.1878 53.5879H13.5078V58.0409H20.1878C20.4802 58.041 20.7697 57.9835 21.0398 57.8717C21.3099 57.7599 21.5554 57.5959 21.7621 57.3892C21.9689 57.1825 22.1328 56.937 22.2446 56.6669C22.3565 56.3968 22.4139 56.1073 22.4138 55.8149V55.8149Z" fill="#5B5555"/>
<path d="M68.4298 17.9629H60.7108L56.2578 22.4159L60.7108 28.2049C60.745 30.2278 61.5739 32.1559 63.0183 33.5724C64.4628 34.989 66.4067 35.7802 68.4298 35.7749C70.4375 35.7749 72.363 34.9774 73.7826 33.5577C75.2023 32.1381 75.9998 30.2126 75.9998 28.2049V17.9629H68.4298Z" fill="#CB0010"/>
<path d="M53.1402 17.9629H45.5702L41.1172 22.4159L45.5702 28.2049C45.5702 30.2127 46.3678 32.1383 47.7875 33.5581C49.2073 34.9778 51.1329 35.7754 53.1407 35.7754C55.1485 35.7754 57.0741 34.9778 58.4938 33.5581C59.9136 32.1383 60.7112 30.2127 60.7112 28.2049V17.9629H53.1402Z" fill="#FF9100"/>
<path d="M38 17.9629H30.4301L25.9771 22.4159L30.4301 28.2049C30.4301 30.2127 31.2277 32.1383 32.6474 33.5581C34.0671 34.9778 35.9927 35.7754 38.0005 35.7754C40.0084 35.7754 41.934 34.9778 43.3537 33.5581C44.7734 32.1383 45.571 30.2127 45.571 28.2049V17.9629H38Z" fill="#EE3616"/>
<path d="M45.57 28.2049V17.9629H38V35.7759C38.9942 35.7759 39.9787 35.5801 40.8972 35.1996C41.8157 34.8191 42.6502 34.2614 43.3531 33.5583C44.0561 32.8553 44.6137 32.0207 44.994 31.1021C45.3744 30.1836 45.5701 29.1991 45.57 28.2049V28.2049Z" fill="#CB0010"/>
<path d="M22.8589 17.9629H15.2889L10.8359 22.4159L15.2889 28.2049C15.2889 30.2127 16.0865 32.1383 17.5063 33.5581C18.926 34.9778 20.8516 35.7754 22.8594 35.7754C24.8673 35.7754 26.7928 34.9778 28.2126 33.5581C29.6323 32.1383 30.4299 30.2127 30.4299 28.2049V17.9629H22.8589Z" fill="#FDBF00"/>
<path d="M7.719 17.9629H0V28.2049C0.0341499 30.2278 0.863053 32.1559 2.3075 33.5724C3.75194 34.989 5.69587 35.7802 7.719 35.7749C8.71311 35.7749 9.69748 35.5791 10.6159 35.1987C11.5343 34.8182 12.3689 34.2606 13.0718 33.5577C13.7747 32.8548 14.3323 32.0203 14.7128 31.1018C15.0932 30.1834 15.289 29.199 15.289 28.2049V17.9629H7.719Z" fill="#EE3616"/>
<path d="M73.7732 71.5489H2.22717C1.64484 71.5612 1.09052 71.8012 0.68304 72.2175C0.275562 72.6337 0.0473633 73.1929 0.0473633 73.7754C0.0473633 74.3579 0.275562 74.9172 0.68304 75.3334C1.09052 75.7496 1.64484 75.9896 2.22717 76.0019H73.7732C74.3555 75.9896 74.9098 75.7496 75.3173 75.3334C75.7248 74.9172 75.953 74.3579 75.953 73.7754C75.953 73.1929 75.7248 72.6337 75.3173 72.2175C74.9098 71.8012 74.3555 71.5612 73.7732 71.5489Z" fill="#8BDB52"/>
<path d="M76 73.7759C76.0003 73.4834 75.9428 73.1937 75.831 72.9234C75.7192 72.653 75.5552 72.4074 75.3483 72.2006C75.1415 71.9937 74.8959 71.8297 74.6255 71.7179C74.3552 71.6061 74.0655 71.5486 73.773 71.5489H38V76.0019H73.773C74.0655 76.0022 74.3551 75.9448 74.6253 75.833C74.8956 75.7213 75.1411 75.5573 75.348 75.3506C75.5548 75.1438 75.7188 74.8984 75.8307 74.6282C75.9426 74.358 76.0001 74.0683 76 73.7759V73.7759Z" fill="#5DC379"/>
</svg>
