<?xml version="1.0" encoding="utf-8"?>
<!-- Generator: Adobe Illustrator 24.1.3, SVG Export Plug-In . SVG Version: 6.00 Build 0)  -->
<svg version="1.1" id="Layer_1" xmlns="http://www.w3.org/2000/svg" xmlns:xlink="http://www.w3.org/1999/xlink" x="0px" y="0px"
	 viewBox="0 0 583.4 497.3" style="enable-background:new 0 0 583.4 497.3;" xml:space="preserve">
<style type="text/css">
	.st0{fill:url(#SVGID_1_);}
	.st1{fill:url(#SVGID_2_);}
	.st2{fill:#BC232F;}
	.st3{fill:url(#SVGID_3_);}
	.st4{fill:#FEC24F;}
	.st5{fill:#FFFFFF;stroke:#FFFFFF;stroke-width:0.5;stroke-miterlimit:10;}
	.st6{fill:#FFFFFF;}
	.st7{fill:#F0514C;}
	.st8{fill:#474A4B;}
</style>
<g>
	<radialGradient id="SVGID_1_" cx="269.6429" cy="119.5465" r="205.8324" gradientUnits="userSpaceOnUse">
		<stop  offset="0" style="stop-color:#E18C3A"/>
		<stop  offset="0.4746" style="stop-color:#CE3231"/>
		<stop  offset="1" style="stop-color:#A9342B"/>
	</radialGradient>
	<path class="st0" d="M219.3,212c1.8,2.9,3.8,5.7,6,8.6c-12.3-5.2-20-13.6-24.6-23.1c-4-8.3-5.6-17.4-5.8-25.8
		c-0.1-5.8,0.4-11.4,1.3-16.1c-1.9,2.8-3.7,5.7-5.3,8.5c10.7-20.1,27.3-36.6,47.4-47.3c-17.2,17.7-28.6,37.1-29.6,57.3
		C208.1,186.4,211.3,199.1,219.3,212z"/>
	<radialGradient id="SVGID_2_" cx="269.6429" cy="119.5465" r="205.8324" gradientUnits="userSpaceOnUse">
		<stop  offset="0" style="stop-color:#E18C3A"/>
		<stop  offset="0.4746" style="stop-color:#CE3231"/>
		<stop  offset="1" style="stop-color:#A9342B"/>
	</radialGradient>
	<path class="st1" d="M358.5,171.7c-0.9,16.2-9.3,29-17.7,37.6c-4.7,4.9-9.5,8.4-12.8,10.5c11.1-20.1,13.5-36.4,10.9-49.4
		c-2-10.2-7.1-18.4-13.4-24.9c-2.9-3-6.1-5.7-9.4-8c-0.3-0.2-0.5-0.4-0.8-0.6c0.1,0.4,0.3,0.7,0.4,1.1c7.8,23.6,1.9,37-7.8,41.6
		c-1.4,0.7-2.9,1.2-4.5,1.5c0,0,0,0,0,0c-2.3,0.4-4.6,0.5-7,0.1c-15.3-2.2-18.1-32.2,6.5-56.9c4.4-4.4,9.3-9.8,13.9-15.9
		c0.5-0.6,0.9-1.2,1.4-1.8c2.2,0.5,4.3,1.1,6.4,1.7c1.2,0.4,2.4,0.7,3.6,1.1c3.2,1.1,6.2,2.2,9.2,3.6c5.5,2.4,10.8,5.2,15.8,8.4
		c-0.9,8.9,0,19.8,3.5,33.1C358.3,160.6,358.8,166.4,358.5,171.7z"/>
	<path class="st2" d="M219.3,212c1.8,2.9,3.8,5.7,6,8.6c-23-9.8-30-30.8-30.4-49c1.2-2.6,2.4-5.1,3.7-7.6c1.6-2.8,3.4-5.7,5.3-8.5
		C200.8,171.6,201.9,196.5,219.3,212z"/>
	<path class="st2" d="M310.5,124.3c-24.2,24.3-21.8,53.8-7.2,56.8c-2.3,0.4-4.6,0.5-7,0.1c-15.3-2.2-18.1-32.2,6.5-56.9
		c4.9-4.9,10.3-10.9,15.3-17.7c2.2,0.5,4.3,1.1,6.4,1.7C319.8,114.5,314.9,119.9,310.5,124.3z"/>
	<path class="st2" d="M340.8,209.3c-4.7,4.9-9.5,8.4-12.8,10.5c19.9-36,11.8-59.5-2.5-74.3c-0.6-2.7-1.4-5.6-2.5-8.6
		C340.9,149.3,357,171.7,340.8,209.3z"/>
	<radialGradient id="SVGID_3_" cx="203.3698" cy="145.1984" r="232.925" gradientUnits="userSpaceOnUse">
		<stop  offset="0" style="stop-color:#FFE2AD"/>
		<stop  offset="0.2944" style="stop-color:#FEC24F"/>
		<stop  offset="0.703" style="stop-color:#F99F38"/>
		<stop  offset="1" style="stop-color:#F57E33"/>
	</radialGradient>
	<path class="st3" d="M405.9,217.8c0,2.2-0.1,4.4-0.2,6.6c-3.4,60-53.2,107.6-114,107.6c-17.8,0-34.7-4.1-49.7-11.3
		c-28.6-13.8-50.5-39.2-59.7-70c-3.1-10.4-4.8-21.5-4.8-32.9c0-19.4,4.8-37.7,13.4-53.7c1.6-2.8,3.4-5.7,5.3-8.5
		c-3.7,19.6-1.3,52.2,29.1,65.1c-29.2-37.2-17-72.9,13-103.8c5.8-6,12.3-11.7,19.2-17.3c43-34.5,63.3-57.1,49.3-99.5
		c46.6,37.6,31.7,79,11.3,106.6c-5,6.8-10.4,12.8-15.3,17.7c-24.6,24.7-21.8,54.7-6.5,56.9c15.3,2.2,30.4-11.3,19-44.3
		c19.5,13.6,36.9,38.9,12.7,82.9c11.3-6.9,38-30.3,28.7-65.3c-3.6-13.2-4.4-24.1-3.5-33.1c21.6,13.8,38.2,34.6,46.7,59.3
		C403.8,192.4,405.9,204.8,405.9,217.8z"/>
	<path class="st4" d="M399.8,180.7c-8.4-24.7-25.1-45.5-46.7-59.3c3-31.2,26.8-38.4,26.8-38.4C354.6,117.9,386.8,139.2,399.8,180.7z
		"/>
	<path class="st4" d="M255.2,233.4c0,3.6-2.8,7.7-6.7,9c-6.4,3-11.3,5.9-13.7,17.4c0,0.2-0.1,0.3-0.1,0.5c0,0,0,0,0,0
		c-0.9,4.4-1.4,10-1.5,17.3c-0.1,12.3-1.4,20.9-2.9,26.9L198.6,269c6.7-4.4,13.2-7.3,17.2-9.2c2.5-1.2,4.9-2.9,7-4.8l0,0
		c6.4-5.9,10.8-14.5,10.8-21.9c0-1-0.1-2-0.3-3c-0.2-1-0.3-1.8-0.2-2.7c0-8.2,10.9-9.8,12.9,0.1
		C252.8,226.8,255.3,229.9,255.2,233.4z"/>
	<path class="st5" d="M255.2,233.4c0,3.6-2.8,7.7-6.7,9c-6.4,3-11.3,5.9-13.7,17.4c0,0.2-0.1,0.3-0.1,0.5c0,0,0,0,0,0
		c-0.9,4.4-1.4,10-1.5,17.3c-0.1,12.3-1.4,20.9-2.9,26.9c-13.1-9.3-24-21.4-31.8-35.6c6.7-4.4,13.2-7.3,17.2-9.2
		c2.5-1.2,4.9-2.9,7-4.8l0,0c6.4-5.9,10.8-14.5,10.8-21.9c0-1-0.1-2-0.3-3c-0.2-1-0.3-1.8-0.2-2.7c0-8.2,10.9-9.8,12.9,0.1
		C252.8,226.8,255.3,229.9,255.2,233.4z"/>
	<path class="st6" d="M397.4,224.2c-3.3,55.5-49.4,99.5-105.7,99.5c-16.5,0-32.1-3.8-46.1-10.5c-1-0.5-2-1-3-1.5
		c2.9-12.5,13.7-22,27.1-22.7c9.3-0.5,17.9,3.4,23.6,9.9c4.8-8.5,13.7-14.4,24.1-15c2.4-0.1,4.8,0,7,0.5
		c4.8-8.6,13.7-14.5,24.2-15.1c3-0.2,6,0.1,8.8,0.9c3.6-1.9,7.8-3.1,12.1-3.3c1.7-0.1,3.3,0,4.9,0.1c-1.8-3.6-3-7.6-3.2-11.8
		C370.6,239.4,382.1,226,397.4,224.2z"/>
	<circle class="st4" cx="280.3" cy="315.4" r="3.9"/>
	<circle class="st4" cx="383" cy="243.6" r="2.8"/>
	<circle class="st4" cx="315.3" cy="312.3" r="2"/>
	<circle class="st4" cx="362.7" cy="274.1" r="2"/>
	<circle class="st4" cx="303.9" cy="296.3" r="2"/>
	<circle class="st4" cx="341.7" cy="302.4" r="2"/>
	<circle class="st4" cx="344.6" cy="284.2" r="2"/>
	<circle class="st4" cx="257.9" cy="309.7" r="1.5"/>
	<path class="st6" d="M298.9,212.6c-4.8,4-8.2,7.7-7.5,18.1c0,0.1,0,0.3,0,0.4c0,0,0,0,0,0c0.3,4,1.2,8.9,2.8,15.1
		c0.1,0.3,0.2,0.7,0.3,1c-2,1.4-3.6,3.4-4.7,5.9c-0.6,1.2-1,2.6-1.3,4c-0.1,0.3-0.2,0.7-0.3,1c-1.7,3.7-6.6,7.8-11.8,9.6l-0.1,0
		c-0.9,0.3-1.8,0.6-2.7,0.7c-0.8,0.2-1.6,0.2-2.3,0.3c-0.5,0-1.1,0-1.7,0.1c-4.3,0.1-10.9,0.4-18.1,1.7c-0.4,0.1-0.8,0.1-1.1,0.2
		c3.1-17.7,18.4-30,24.8-35.7c1.8-1.6,3.5-3.6,4.8-5.8l0,0c4-6.6,5.8-15,4-21.2c-0.3-0.9-0.6-1.7-1-2.4c-0.4-0.8-0.7-1.5-0.8-2.2
		c-1.9-7,7-11,11.1-3c5.7-2.2,8.6-0.2,9.3,2.9C303.4,206.3,302,210.5,298.9,212.6z"/>
	<path class="st6" d="M312.8,269c-1.2,2.9-5,5.3-8.6,5c-6.2,0.1-11.3,0.8-17.2,9.3c-4.8-2.1-10.1-3.3-15.5-3.3c-0.7,0-1.4,0-2,0
		c-11.4,0.6-21.6,6.3-28.3,15c0.5-4.3,0.8-8.8,1-13.7c11.3-4.5,23.3-4.5,29.5-4.8c2.4-0.1,5-0.6,7.4-1.5h0c7.3-2.5,13.9-8,16.5-14
		c0.3-0.8,0.6-1.7,0.8-2.5c0.2-0.9,0.4-1.6,0.7-2.3c2.9-6.7,12.3-4.1,10.5,4.6C313.2,262.9,314.1,266.2,312.8,269z"/>
	<path class="st5" d="M255.2,233.4c0,3.6-2.8,7.7-6.7,9c-6.4,3-11.3,5.9-13.7,17.4c0,0.2-0.1,0.3-0.1,0.5c0,0,0,0,0,0
		c-0.9,4.4-1.4,10-1.5,17.3c-0.1,12.3-1.4,20.9-2.9,26.9c-13.1-9.3-24-21.4-31.8-35.6c6.7-4.4,13.2-7.3,17.2-9.2
		c2.5-1.2,4.9-2.9,7-4.8l0,0c6.4-5.9,10.8-14.5,10.8-21.9c0-1-0.1-2-0.3-3c-0.2-1-0.3-1.8-0.2-2.7c0-8.2,10.9-9.8,12.9,0.1
		C252.8,226.8,255.3,229.9,255.2,233.4z"/>
	<g>
		<path d="M32.4,436.4H20.9v15.2c0,2.5-2,4.5-4.5,4.5h-12c-2.5,0-4.5-2-4.5-4.5v-65.1c0-2.5,2-4.5,4.5-4.5h29.4
			c20.2,0,32.9,10.5,32.9,27.4c0,10.9-5.3,18.9-14.5,23.4l11.2,16.3c2,3-0.1,7-3.7,7H48.2c-1.5,0-2.9-0.7-3.7-2L32.4,436.4z
			 M32.6,398.6H20.9v21.7h11.6c8.7,0,13-4,13-10.8C45.6,402.6,41.3,398.6,32.6,398.6z"/>
	</g>
	<g>
		<path d="M73.1,381.7c0-6,4.9-10.7,12.3-10.7s12.3,4.3,12.3,10.4c0,6.3-4.9,11-12.3,11S73.1,387.8,73.1,381.7z M79.8,398.8H91
			c2.5,0,4.5,2,4.5,4.5v48.4c0,2.5-2,4.5-4.5,4.5H79.8c-2.5,0-4.5-2-4.5-4.5v-48.4C75.3,400.8,77.3,398.8,79.8,398.8z"/>
	</g>
	<g>
		<path d="M102.8,427.3c0-17.2,13.6-29.5,32.9-29.5c10.9,0,19.6,4.1,24.5,11.2c1.5,2.3,0.8,5.3-1.6,6.6l-8.1,4.1
			c-1.9,1-4.1,0.4-5.4-1.3c-2.6-3.2-5.8-4.7-9.5-4.7c-7,0-12.5,4.9-12.5,13.5c0,8.9,5.5,13.8,12.5,13.8c3.7,0,6.9-1.4,9.5-4.7
			c1.3-1.6,3.5-2.2,5.4-1.3l8.1,4.1c2.4,1.2,3.2,4.3,1.6,6.6c-4.9,7.2-13.6,11.2-24.5,11.2C116.5,457.1,102.8,444.8,102.8,427.3z"/>
	</g>
	<g>
		<path d="M225.9,432.5h-41.7c1.7,5.8,6.7,9.2,14.1,9.2c4.2,0,7.4-0.9,10.3-2.8c1.8-1.1,4.2-0.9,5.6,0.7l4.7,4.9
			c1.8,1.9,1.7,5-0.4,6.6c-5.2,3.9-12.1,6-20.8,6c-20.4,0-33.6-12.6-33.6-29.7c0-17.2,13.4-29.5,31.5-29.5
			c16.9,0,30.7,10.8,30.7,29.7C226.2,429,226,430.9,225.9,432.5z M183.9,421.9h23.5c-1.1-6-5.5-9.8-11.7-9.8
			C189.4,412.1,185.1,415.9,183.9,421.9z"/>
	</g>
	<g>
		<path d="M371.8,417.5h9.5c2.5,0,4.5,2,4.5,4.5v26.2c-8.6,6.1-20.3,9.4-31.1,9.4c-23.6,0-40.8-16-40.8-38.5s17.2-38.5,41.3-38.5
			c11.9,0,21.8,3.5,29,10c2,1.8,1.9,4.9,0,6.6l-6.8,6.2c-1.6,1.5-4.2,1.6-5.8,0.2c-4.4-3.8-9.4-5.6-15.3-5.6
			c-12.9,0-21.4,8.6-21.2,21.8c0.3,11.6,9.4,20.6,21.1,20.5c3.9,0,7.5-0.8,11.2-2.4V422C367.4,419.5,369.4,417.5,371.8,417.5z"/>
	</g>
	<g>
		<path d="M434.7,402.6v8.5c0,2.5-2,4.4-4.5,4.4c0,0,0,0,0,0c-8.1,0-13.8,4.1-13.8,14.2v26.3h-20.1v-52.9c0-2.5,2-4.5,4.5-4.5h10.2
			c2.5,0,4.5,2,4.5,4.5v2.4c3.3-4.1,8.1-6.6,14.2-7.5C432.3,397.8,434.7,399.9,434.7,402.6z"/>
	</g>
	<g>
		<path d="M438.7,381.7c0-6,4.9-10.7,12.3-10.7c7.4,0,12.3,4.3,12.3,10.4c0,6.3-4.9,11-12.3,11C443.5,392.4,438.7,387.8,438.7,381.7
			z M445.4,398.8h11.1c2.5,0,4.5,2,4.5,4.5v48.4c0,2.5-2,4.5-4.5,4.5h-11.1c-2.5,0-4.5-2-4.5-4.5v-48.4
			C440.9,400.8,442.9,398.8,445.4,398.8z"/>
	</g>
	<g>
		<path d="M476.5,377.6h11.1c2.5,0,4.5,2,4.5,4.5v69.5c0,2.5-2,4.5-4.5,4.5h-11.1c-2.5,0-4.5-2-4.5-4.5v-69.5
			C472,379.6,474,377.6,476.5,377.6z"/>
	</g>
	<g>
		<path d="M507.6,377.6h11.1c2.5,0,4.5,2,4.5,4.5v69.5c0,2.5-2,4.5-4.5,4.5h-11.1c-2.5,0-4.5-2-4.5-4.5v-69.5
			C503.1,379.6,505.1,377.6,507.6,377.6z"/>
	</g>
	<g>
		<path d="M531.4,447.2l2.4-5.5c1-2.3,3.6-3.3,5.9-2.3c4.8,2,10.6,3.2,16,3.2c6.8,0,9-1.5,9-3.9c0-7.7-33.9,1.1-33.9-21.9
			c0-10.8,9.9-19,27.9-19c6.2,0,12.8,1,18.2,2.9c2.5,0.9,3.7,3.7,2.6,6.1l-2.4,5.4c-1,2.2-3.5,3.3-5.7,2.4
			c-4.4-1.8-8.7-2.4-12.6-2.4c-6.8,0-9.2,1.9-9.2,4c0,7.9,33.8-0.6,33.8,22.1c0,10.6-9.7,18.8-28.4,18.8c-7.7,0-15.5-1.5-21.3-3.9
			C531.4,452.2,530.4,449.6,531.4,447.2z"/>
	</g>
	<g>
		<path class="st7" d="M284.8,380.3v44.1l-29.2-35.2c-2.2-2.7-5.5-4.2-9-4.2h0c-6.5,0-11.7,5.3-11.7,11.7V497h0.4l20.1-20.1v-57.4
			l29.2,35.2c2.2,2.7,5.5,4.2,9,4.2h0c6.5,0,11.7-5.3,11.7-11.7v-87.5L284.8,380.3z"/>
	</g>
	<g>
		<path class="st8" d="M53.1,481.5v5.6H62v2.9h-8.9v7h-3.4v-18.4h13.4v2.9H53.1z"/>
		<path class="st8" d="M99.5,497l-3.8-5.4c-0.2,0-0.5,0-0.7,0h-4.2v5.4h-3.4v-18.4H95c4.8,0,7.8,2.5,7.8,6.5c0,2.8-1.4,4.8-3.9,5.8
			l4.2,6H99.5z M94.9,481.5h-4v7.3h4c3,0,4.5-1.4,4.5-3.7C99.4,482.8,97.9,481.5,94.9,481.5z"/>
		<path class="st8" d="M141.5,494.1v2.9h-13.8v-18.4h13.4v2.9h-10v4.8h8.9v2.8h-8.9v5.1H141.5z"/>
		<path class="st8" d="M164.7,495.1l1.2-2.7c1.5,1.2,3.8,2,6.1,2c2.9,0,4.1-1,4.1-2.4c0-4-10.9-1.4-10.9-8.2c0-3,2.4-5.5,7.4-5.5
			c2.2,0,4.5,0.6,6.1,1.6l-1.1,2.7c-1.7-1-3.5-1.4-5.1-1.4c-2.8,0-4,1.1-4,2.5c0,3.9,10.9,1.4,10.9,8.1c0,2.9-2.4,5.5-7.4,5.5
			C169.1,497.3,166.3,496.4,164.7,495.1z"/>
		<path class="st8" d="M220.2,478.6V497h-3.4v-7.9h-9.5v7.9h-3.4v-18.4h3.4v7.6h9.5v-7.6H220.2z"/>
	</g>
	<g>
		<path class="st8" d="M325.1,481.5H319v-2.9h15.6v2.9h-6.1V497h-3.4V481.5z"/>
		<path class="st8" d="M369.2,492.7H360l-1.8,4.3h-3.5l8.3-18.4h3.4l8.3,18.4H371L369.2,492.7z M368,490.1l-3.5-8l-3.4,8H368z"/>
		<path class="st8" d="M396.4,495.1l1.2-2.7c1.5,1.2,3.8,2,6.1,2c2.9,0,4.1-1,4.1-2.4c0-4-10.9-1.4-10.9-8.2c0-3,2.4-5.5,7.4-5.5
			c2.2,0,4.5,0.6,6.1,1.6l-1.1,2.7c-1.7-1-3.5-1.4-5.1-1.4c-2.8,0-4,1.1-4,2.5c0,3.9,10.9,1.4,10.9,8.1c0,2.9-2.4,5.5-7.4,5.5
			C400.7,497.3,397.9,496.4,396.4,495.1z"/>
		<path class="st8" d="M438.9,481.5h-6.1v-2.9h15.6v2.9h-6.1V497h-3.4V481.5z"/>
		<path class="st8" d="M479.7,490.5v6.5h-3.4v-6.4l-7.2-12h3.7l5.4,9l5.4-9h3.4L479.7,490.5z"/>
	</g>
</g>
</svg>
